<mxfile host="app.diagrams.net" modified="2024-05-09T14:18:27.234Z" agent="Mozilla/5.0 (Windows NT 10.0; Win64; x64) AppleWebKit/537.36 (KHTML, like Gecko) Chrome/124.0.0.0 Safari/537.36" etag="TDhPZuhdlzcI-RAf9lqa" version="24.3.1" type="device">
  <diagram name="Page-1" id="mzYQFkG2qb7Kt714Rzzp">
    <mxGraphModel dx="552" dy="1148" grid="1" gridSize="10" guides="1" tooltips="1" connect="1" arrows="1" fold="1" page="1" pageScale="1" pageWidth="827" pageHeight="1169" math="0" shadow="0">
      <root>
        <mxCell id="0" />
        <mxCell id="1" parent="0" />
        <mxCell id="X861MBzPfUZEkW0-GhYv-276" style="edgeStyle=orthogonalEdgeStyle;rounded=0;orthogonalLoop=1;jettySize=auto;html=1;endArrow=ERzeroToMany;endFill=0;" edge="1" parent="1" source="X861MBzPfUZEkW0-GhYv-280">
          <mxGeometry relative="1" as="geometry">
            <mxPoint x="3060" y="1630" as="targetPoint" />
            <Array as="points">
              <mxPoint x="3130" y="1700" />
              <mxPoint x="3130" y="1680" />
              <mxPoint x="3110" y="1680" />
              <mxPoint x="3110" y="1630" />
            </Array>
          </mxGeometry>
        </mxCell>
        <mxCell id="X861MBzPfUZEkW0-GhYv-277" style="edgeStyle=orthogonalEdgeStyle;rounded=0;orthogonalLoop=1;jettySize=auto;html=1;endArrow=oval;endFill=0;" edge="1" parent="1">
          <mxGeometry relative="1" as="geometry">
            <mxPoint x="3170" y="1650" as="targetPoint" />
            <mxPoint x="3170" y="1690" as="sourcePoint" />
          </mxGeometry>
        </mxCell>
        <mxCell id="X861MBzPfUZEkW0-GhYv-278" style="edgeStyle=none;rounded=0;orthogonalLoop=1;jettySize=auto;html=1;entryX=0;entryY=0.5;entryDx=0;entryDy=0;endArrow=block;endFill=1;exitX=1;exitY=0.5;exitDx=0;exitDy=0;" edge="1" parent="1" source="X861MBzPfUZEkW0-GhYv-280" target="X861MBzPfUZEkW0-GhYv-281">
          <mxGeometry relative="1" as="geometry">
            <Array as="points" />
          </mxGeometry>
        </mxCell>
        <mxCell id="X861MBzPfUZEkW0-GhYv-279" style="edgeStyle=none;rounded=0;orthogonalLoop=1;jettySize=auto;html=1;endArrow=oval;endFill=0;" edge="1" parent="1" source="X861MBzPfUZEkW0-GhYv-280" target="X861MBzPfUZEkW0-GhYv-377">
          <mxGeometry relative="1" as="geometry" />
        </mxCell>
        <mxCell id="X861MBzPfUZEkW0-GhYv-280" value="Profesores" style="whiteSpace=wrap;html=1;" vertex="1" parent="1">
          <mxGeometry x="3140" y="1690" width="120" height="60" as="geometry" />
        </mxCell>
        <mxCell id="X861MBzPfUZEkW0-GhYv-281" value="Es jefe" style="rhombus;whiteSpace=wrap;html=1;" vertex="1" parent="1">
          <mxGeometry x="3480" y="1630" width="80" height="80" as="geometry" />
        </mxCell>
        <mxCell id="X861MBzPfUZEkW0-GhYv-282" style="edgeStyle=orthogonalEdgeStyle;rounded=0;orthogonalLoop=1;jettySize=auto;html=1;exitX=0.75;exitY=0;exitDx=0;exitDy=0;endArrow=oval;endFill=1;" edge="1" parent="1" source="X861MBzPfUZEkW0-GhYv-285">
          <mxGeometry relative="1" as="geometry">
            <mxPoint x="3760" y="1710" as="targetPoint" />
          </mxGeometry>
        </mxCell>
        <mxCell id="X861MBzPfUZEkW0-GhYv-283" style="edgeStyle=orthogonalEdgeStyle;rounded=0;orthogonalLoop=1;jettySize=auto;html=1;endArrow=oval;endFill=0;exitX=0.852;exitY=1.046;exitDx=0;exitDy=0;exitPerimeter=0;" edge="1" parent="1" source="X861MBzPfUZEkW0-GhYv-285" target="X861MBzPfUZEkW0-GhYv-326">
          <mxGeometry relative="1" as="geometry">
            <mxPoint x="3830" y="1830" as="targetPoint" />
          </mxGeometry>
        </mxCell>
        <mxCell id="X861MBzPfUZEkW0-GhYv-284" style="edgeStyle=orthogonalEdgeStyle;rounded=0;orthogonalLoop=1;jettySize=auto;html=1;endArrow=oval;endFill=0;" edge="1" parent="1" source="X861MBzPfUZEkW0-GhYv-285" target="X861MBzPfUZEkW0-GhYv-404">
          <mxGeometry relative="1" as="geometry" />
        </mxCell>
        <mxCell id="X861MBzPfUZEkW0-GhYv-285" value="Departamento" style="rounded=0;whiteSpace=wrap;html=1;" vertex="1" parent="1">
          <mxGeometry x="3670" y="1750" width="120" height="60" as="geometry" />
        </mxCell>
        <mxCell id="X861MBzPfUZEkW0-GhYv-286" style="edgeStyle=none;rounded=0;orthogonalLoop=1;jettySize=auto;html=1;entryX=0.5;entryY=0;entryDx=0;entryDy=0;endArrow=classic;endFill=1;exitX=0.112;exitY=0.985;exitDx=0;exitDy=0;exitPerimeter=0;" edge="1" parent="1" source="X861MBzPfUZEkW0-GhYv-296" target="X861MBzPfUZEkW0-GhYv-360">
          <mxGeometry relative="1" as="geometry">
            <mxPoint x="3433.3199999999997" y="2480" as="sourcePoint" />
            <mxPoint x="3433.3199999999997" y="2550" as="targetPoint" />
          </mxGeometry>
        </mxCell>
        <mxCell id="X861MBzPfUZEkW0-GhYv-287" style="edgeStyle=none;rounded=0;orthogonalLoop=1;jettySize=auto;html=1;entryX=0;entryY=0.5;entryDx=0;entryDy=0;endArrow=block;endFill=1;exitX=1;exitY=0;exitDx=0;exitDy=0;" edge="1" parent="1" source="X861MBzPfUZEkW0-GhYv-296" target="X861MBzPfUZEkW0-GhYv-366">
          <mxGeometry relative="1" as="geometry">
            <Array as="points" />
          </mxGeometry>
        </mxCell>
        <mxCell id="X861MBzPfUZEkW0-GhYv-288" style="edgeStyle=none;rounded=0;orthogonalLoop=1;jettySize=auto;html=1;entryX=0.571;entryY=1;entryDx=0;entryDy=0;entryPerimeter=0;endArrow=oval;endFill=1;" edge="1" parent="1" source="X861MBzPfUZEkW0-GhYv-296" target="X861MBzPfUZEkW0-GhYv-378">
          <mxGeometry relative="1" as="geometry" />
        </mxCell>
        <mxCell id="X861MBzPfUZEkW0-GhYv-289" style="edgeStyle=none;rounded=0;orthogonalLoop=1;jettySize=auto;html=1;endArrow=oval;endFill=0;exitX=0.215;exitY=-0.031;exitDx=0;exitDy=0;exitPerimeter=0;" edge="1" parent="1" source="X861MBzPfUZEkW0-GhYv-353" target="X861MBzPfUZEkW0-GhYv-435">
          <mxGeometry relative="1" as="geometry">
            <mxPoint x="2894.0299999999997" y="2044" as="targetPoint" />
          </mxGeometry>
        </mxCell>
        <mxCell id="X861MBzPfUZEkW0-GhYv-290" style="edgeStyle=none;rounded=0;orthogonalLoop=1;jettySize=auto;html=1;endArrow=oval;endFill=0;entryX=0.079;entryY=1.012;entryDx=0;entryDy=0;entryPerimeter=0;exitX=0.621;exitY=0.025;exitDx=0;exitDy=0;exitPerimeter=0;" edge="1" parent="1" source="X861MBzPfUZEkW0-GhYv-353" target="X861MBzPfUZEkW0-GhYv-379">
          <mxGeometry relative="1" as="geometry">
            <mxPoint x="3282.5" y="2290" as="targetPoint" />
          </mxGeometry>
        </mxCell>
        <mxCell id="X861MBzPfUZEkW0-GhYv-291" style="edgeStyle=none;rounded=0;orthogonalLoop=1;jettySize=auto;html=1;endArrow=oval;endFill=0;" edge="1" parent="1" source="X861MBzPfUZEkW0-GhYv-296" target="X861MBzPfUZEkW0-GhYv-429">
          <mxGeometry relative="1" as="geometry">
            <mxPoint x="3495" y="2300" as="targetPoint" />
          </mxGeometry>
        </mxCell>
        <mxCell id="X861MBzPfUZEkW0-GhYv-292" style="edgeStyle=none;rounded=0;orthogonalLoop=1;jettySize=auto;html=1;endArrow=oval;endFill=0;entryX=1.052;entryY=0.45;entryDx=0;entryDy=0;entryPerimeter=0;" edge="1" parent="1" source="X861MBzPfUZEkW0-GhYv-296" target="X861MBzPfUZEkW0-GhYv-381">
          <mxGeometry relative="1" as="geometry">
            <mxPoint x="3395" y="2400" as="targetPoint" />
          </mxGeometry>
        </mxCell>
        <mxCell id="X861MBzPfUZEkW0-GhYv-293" style="edgeStyle=none;rounded=0;orthogonalLoop=1;jettySize=auto;html=1;endArrow=oval;endFill=0;entryX=0.57;entryY=1.2;entryDx=0;entryDy=0;entryPerimeter=0;" edge="1" parent="1" source="X861MBzPfUZEkW0-GhYv-296" target="X861MBzPfUZEkW0-GhYv-382">
          <mxGeometry relative="1" as="geometry">
            <mxPoint x="3515" y="2190" as="targetPoint" />
          </mxGeometry>
        </mxCell>
        <mxCell id="X861MBzPfUZEkW0-GhYv-294" style="edgeStyle=none;rounded=0;orthogonalLoop=1;jettySize=auto;html=1;endArrow=oval;endFill=0;entryX=0.447;entryY=-0.175;entryDx=0;entryDy=0;entryPerimeter=0;" edge="1" parent="1" source="X861MBzPfUZEkW0-GhYv-296">
          <mxGeometry relative="1" as="geometry">
            <mxPoint x="3380.7599999999998" y="2071.5" as="targetPoint" />
          </mxGeometry>
        </mxCell>
        <mxCell id="X861MBzPfUZEkW0-GhYv-295" style="edgeStyle=none;rounded=0;orthogonalLoop=1;jettySize=auto;html=1;endArrow=oval;endFill=0;" edge="1" parent="1" source="X861MBzPfUZEkW0-GhYv-296" target="X861MBzPfUZEkW0-GhYv-383">
          <mxGeometry relative="1" as="geometry">
            <mxPoint x="3375" y="2320" as="targetPoint" />
          </mxGeometry>
        </mxCell>
        <mxCell id="X861MBzPfUZEkW0-GhYv-296" value="actividadProgramada" style="whiteSpace=wrap;html=1;" vertex="1" parent="1">
          <mxGeometry x="3450" y="2110" width="120" height="60" as="geometry" />
        </mxCell>
        <mxCell id="X861MBzPfUZEkW0-GhYv-297" value="Participa" style="rhombus;whiteSpace=wrap;html=1;" vertex="1" parent="1">
          <mxGeometry x="2960" y="1895" width="110" height="80" as="geometry" />
        </mxCell>
        <mxCell id="X861MBzPfUZEkW0-GhYv-298" style="edgeStyle=orthogonalEdgeStyle;rounded=0;orthogonalLoop=1;jettySize=auto;html=1;entryX=0.5;entryY=0;entryDx=0;entryDy=0;endArrow=classic;endFill=1;" edge="1" parent="1" source="X861MBzPfUZEkW0-GhYv-299" target="X861MBzPfUZEkW0-GhYv-406">
          <mxGeometry relative="1" as="geometry" />
        </mxCell>
        <mxCell id="X861MBzPfUZEkW0-GhYv-299" value="Grupos" style="whiteSpace=wrap;html=1;" vertex="1" parent="1">
          <mxGeometry x="2370" y="1940" width="120" height="60" as="geometry" />
        </mxCell>
        <mxCell id="X861MBzPfUZEkW0-GhYv-300" value="Compone&lt;br&gt;" style="rhombus;whiteSpace=wrap;html=1;" vertex="1" parent="1">
          <mxGeometry x="2390" y="2090" width="80" height="80" as="geometry" />
        </mxCell>
        <mxCell id="X861MBzPfUZEkW0-GhYv-301" style="edgeStyle=orthogonalEdgeStyle;rounded=0;orthogonalLoop=1;jettySize=auto;html=1;endArrow=oval;endFill=0;exitX=0;exitY=1;exitDx=0;exitDy=0;entryX=0.438;entryY=-0.1;entryDx=0;entryDy=0;entryPerimeter=0;" edge="1" parent="1" source="X861MBzPfUZEkW0-GhYv-303" target="X861MBzPfUZEkW0-GhYv-329">
          <mxGeometry relative="1" as="geometry">
            <mxPoint x="2385" y="2500" as="targetPoint" />
          </mxGeometry>
        </mxCell>
        <mxCell id="X861MBzPfUZEkW0-GhYv-302" style="edgeStyle=orthogonalEdgeStyle;rounded=0;orthogonalLoop=1;jettySize=auto;html=1;endArrow=classic;endFill=1;" edge="1" parent="1" source="X861MBzPfUZEkW0-GhYv-303" target="X861MBzPfUZEkW0-GhYv-408">
          <mxGeometry relative="1" as="geometry" />
        </mxCell>
        <mxCell id="X861MBzPfUZEkW0-GhYv-303" value="Curso" style="whiteSpace=wrap;html=1;rotation=0;" vertex="1" parent="1">
          <mxGeometry x="2560" y="2310" width="120" height="60" as="geometry" />
        </mxCell>
        <mxCell id="X861MBzPfUZEkW0-GhYv-304" value="" style="endArrow=classic;html=1;rounded=0;entryX=0.5;entryY=0;entryDx=0;entryDy=0;exitX=1;exitY=0.5;exitDx=0;exitDy=0;" edge="1" parent="1" source="X861MBzPfUZEkW0-GhYv-281" target="X861MBzPfUZEkW0-GhYv-285">
          <mxGeometry width="50" height="50" relative="1" as="geometry">
            <mxPoint x="3440" y="2070" as="sourcePoint" />
            <mxPoint x="3490" y="2020" as="targetPoint" />
            <Array as="points">
              <mxPoint x="3730" y="1690" />
            </Array>
          </mxGeometry>
        </mxCell>
        <mxCell id="X861MBzPfUZEkW0-GhYv-305" value="Pertenece" style="rhombus;whiteSpace=wrap;html=1;" vertex="1" parent="1">
          <mxGeometry x="3470" y="1780" width="80" height="80" as="geometry" />
        </mxCell>
        <mxCell id="X861MBzPfUZEkW0-GhYv-306" value="" style="endArrow=classic;html=1;rounded=0;entryX=0;entryY=0.5;entryDx=0;entryDy=0;exitX=1;exitY=0.5;exitDx=0;exitDy=0;" edge="1" parent="1" source="X861MBzPfUZEkW0-GhYv-280" target="X861MBzPfUZEkW0-GhYv-305">
          <mxGeometry width="50" height="50" relative="1" as="geometry">
            <mxPoint x="4260" y="2220" as="sourcePoint" />
            <mxPoint x="4310" y="2170" as="targetPoint" />
          </mxGeometry>
        </mxCell>
        <mxCell id="X861MBzPfUZEkW0-GhYv-307" value="" style="endArrow=classic;html=1;rounded=0;entryX=0.003;entryY=0.531;entryDx=0;entryDy=0;exitX=1;exitY=0.5;exitDx=0;exitDy=0;entryPerimeter=0;" edge="1" parent="1" source="X861MBzPfUZEkW0-GhYv-305" target="X861MBzPfUZEkW0-GhYv-285">
          <mxGeometry width="50" height="50" relative="1" as="geometry">
            <mxPoint x="3440" y="2070" as="sourcePoint" />
            <mxPoint x="3490" y="2020" as="targetPoint" />
            <Array as="points" />
          </mxGeometry>
        </mxCell>
        <mxCell id="X861MBzPfUZEkW0-GhYv-308" value="" style="endArrow=classic;html=1;rounded=0;exitX=0.5;exitY=1;exitDx=0;exitDy=0;entryX=0.5;entryY=0;entryDx=0;entryDy=0;" edge="1" parent="1" source="X861MBzPfUZEkW0-GhYv-297" target="X861MBzPfUZEkW0-GhYv-353">
          <mxGeometry width="50" height="50" relative="1" as="geometry">
            <mxPoint x="2957.5" y="1890" as="sourcePoint" />
            <mxPoint x="2917.5" y="2070" as="targetPoint" />
          </mxGeometry>
        </mxCell>
        <mxCell id="X861MBzPfUZEkW0-GhYv-309" value="" style="endArrow=classic;html=1;rounded=0;entryX=0.5;entryY=0;entryDx=0;entryDy=0;exitX=0.5;exitY=1;exitDx=0;exitDy=0;" edge="1" parent="1" source="X861MBzPfUZEkW0-GhYv-299" target="X861MBzPfUZEkW0-GhYv-300">
          <mxGeometry width="50" height="50" relative="1" as="geometry">
            <mxPoint x="2435" y="1990" as="sourcePoint" />
            <mxPoint x="2690" y="1790" as="targetPoint" />
          </mxGeometry>
        </mxCell>
        <mxCell id="X861MBzPfUZEkW0-GhYv-310" value="" style="endArrow=classic;html=1;rounded=0;exitX=0.5;exitY=1;exitDx=0;exitDy=0;entryX=0.5;entryY=0;entryDx=0;entryDy=0;" edge="1" parent="1" source="X861MBzPfUZEkW0-GhYv-300" target="X861MBzPfUZEkW0-GhYv-303">
          <mxGeometry width="50" height="50" relative="1" as="geometry">
            <mxPoint x="2573" y="2415" as="sourcePoint" />
            <mxPoint x="2445" y="2380" as="targetPoint" />
          </mxGeometry>
        </mxCell>
        <mxCell id="X861MBzPfUZEkW0-GhYv-311" value="" style="endArrow=classic;html=1;rounded=0;entryX=0.5;entryY=0;entryDx=0;entryDy=0;exitX=0;exitY=1;exitDx=0;exitDy=0;" edge="1" parent="1" source="X861MBzPfUZEkW0-GhYv-280" target="X861MBzPfUZEkW0-GhYv-297">
          <mxGeometry width="50" height="50" relative="1" as="geometry">
            <mxPoint x="3930" y="2020" as="sourcePoint" />
            <mxPoint x="3150" y="1830" as="targetPoint" />
          </mxGeometry>
        </mxCell>
        <mxCell id="X861MBzPfUZEkW0-GhYv-312" style="edgeStyle=orthogonalEdgeStyle;rounded=0;orthogonalLoop=1;jettySize=auto;html=1;endArrow=oval;endFill=0;exitX=1;exitY=0.5;exitDx=0;exitDy=0;" edge="1" parent="1" source="X861MBzPfUZEkW0-GhYv-280">
          <mxGeometry relative="1" as="geometry">
            <mxPoint x="3295" y="1680" as="targetPoint" />
            <Array as="points">
              <mxPoint x="3260" y="1690" />
              <mxPoint x="3295" y="1690" />
            </Array>
            <mxPoint x="3295.0526315789475" y="1720" as="sourcePoint" />
          </mxGeometry>
        </mxCell>
        <mxCell id="X861MBzPfUZEkW0-GhYv-313" value="DNI" style="text;html=1;align=center;verticalAlign=middle;resizable=0;points=[];autosize=1;strokeColor=none;fillColor=none;" vertex="1" parent="1">
          <mxGeometry x="3255" y="1640" width="40" height="20" as="geometry" />
        </mxCell>
        <mxCell id="X861MBzPfUZEkW0-GhYv-314" value="Nombre" style="text;html=1;align=center;verticalAlign=middle;resizable=0;points=[];autosize=1;strokeColor=none;fillColor=none;" vertex="1" parent="1">
          <mxGeometry x="3285" y="1660" width="60" height="20" as="geometry" />
        </mxCell>
        <mxCell id="X861MBzPfUZEkW0-GhYv-315" style="edgeStyle=orthogonalEdgeStyle;rounded=0;orthogonalLoop=1;jettySize=auto;html=1;endArrow=oval;endFill=0;entryX=0.449;entryY=1.082;entryDx=0;entryDy=0;entryPerimeter=0;" edge="1" parent="1" target="X861MBzPfUZEkW0-GhYv-316">
          <mxGeometry relative="1" as="geometry">
            <mxPoint x="3245" y="1680" as="targetPoint" />
            <mxPoint x="3232" y="1690" as="sourcePoint" />
            <Array as="points">
              <mxPoint x="3245" y="1690" />
              <mxPoint x="3232" y="1690" />
            </Array>
          </mxGeometry>
        </mxCell>
        <mxCell id="X861MBzPfUZEkW0-GhYv-316" value="Apellidos" style="text;html=1;align=center;verticalAlign=middle;resizable=0;points=[];autosize=1;strokeColor=none;fillColor=none;" vertex="1" parent="1">
          <mxGeometry x="3167.5" y="1650" width="60" height="20" as="geometry" />
        </mxCell>
        <mxCell id="X861MBzPfUZEkW0-GhYv-317" style="edgeStyle=orthogonalEdgeStyle;rounded=0;orthogonalLoop=1;jettySize=auto;html=1;endArrow=oval;endFill=1;" edge="1" parent="1">
          <mxGeometry relative="1" as="geometry">
            <mxPoint x="3140" y="1640" as="targetPoint" />
            <mxPoint x="3140" y="1690" as="sourcePoint" />
          </mxGeometry>
        </mxCell>
        <mxCell id="X861MBzPfUZEkW0-GhYv-318" value="ID_prof" style="text;html=1;align=center;verticalAlign=middle;resizable=0;points=[];autosize=1;strokeColor=none;fillColor=none;" vertex="1" parent="1">
          <mxGeometry x="3115" y="1610" width="50" height="20" as="geometry" />
        </mxCell>
        <mxCell id="X861MBzPfUZEkW0-GhYv-319" value="Correo" style="text;html=1;align=center;verticalAlign=middle;resizable=0;points=[];autosize=1;strokeColor=none;fillColor=none;" vertex="1" parent="1">
          <mxGeometry x="3172.5" y="1780" width="50" height="20" as="geometry" />
        </mxCell>
        <mxCell id="X861MBzPfUZEkW0-GhYv-320" value="SuperUsuario" style="text;html=1;align=center;verticalAlign=middle;resizable=0;points=[];autosize=1;strokeColor=none;fillColor=none;" vertex="1" parent="1">
          <mxGeometry x="2960" y="1600" width="90" height="20" as="geometry" />
        </mxCell>
        <mxCell id="X861MBzPfUZEkW0-GhYv-321" value="Administrador" style="text;html=1;align=center;verticalAlign=middle;resizable=0;points=[];autosize=1;strokeColor=none;fillColor=none;" vertex="1" parent="1">
          <mxGeometry x="2960" y="1620" width="90" height="20" as="geometry" />
        </mxCell>
        <mxCell id="X861MBzPfUZEkW0-GhYv-322" value="EquipoDirectivo" style="text;html=1;align=center;verticalAlign=middle;resizable=0;points=[];autosize=1;strokeColor=none;fillColor=none;" vertex="1" parent="1">
          <mxGeometry x="2960" y="1640" width="100" height="20" as="geometry" />
        </mxCell>
        <mxCell id="X861MBzPfUZEkW0-GhYv-323" value="Profesor" style="text;html=1;align=center;verticalAlign=middle;resizable=0;points=[];autosize=1;strokeColor=none;fillColor=none;" vertex="1" parent="1">
          <mxGeometry x="2960" y="1660" width="60" height="20" as="geometry" />
        </mxCell>
        <mxCell id="X861MBzPfUZEkW0-GhYv-324" value="Estado" style="text;html=1;align=center;verticalAlign=middle;resizable=0;points=[];autosize=1;strokeColor=none;fillColor=none;" vertex="1" parent="1">
          <mxGeometry x="3145" y="1630" width="50" height="20" as="geometry" />
        </mxCell>
        <mxCell id="X861MBzPfUZEkW0-GhYv-325" value="idDepartamentos" style="text;html=1;align=center;verticalAlign=middle;resizable=0;points=[];autosize=1;strokeColor=none;fillColor=none;" vertex="1" parent="1">
          <mxGeometry x="3735" y="1690" width="110" height="20" as="geometry" />
        </mxCell>
        <mxCell id="X861MBzPfUZEkW0-GhYv-326" value="Nombre" style="text;html=1;align=center;verticalAlign=middle;resizable=0;points=[];autosize=1;strokeColor=none;fillColor=none;" vertex="1" parent="1">
          <mxGeometry x="3742.5" y="1840" width="60" height="20" as="geometry" />
        </mxCell>
        <mxCell id="X861MBzPfUZEkW0-GhYv-327" style="edgeStyle=orthogonalEdgeStyle;rounded=0;orthogonalLoop=1;jettySize=auto;html=1;endArrow=ERmany;endFill=0;" edge="1" parent="1" source="X861MBzPfUZEkW0-GhYv-328" target="X861MBzPfUZEkW0-GhYv-332">
          <mxGeometry relative="1" as="geometry">
            <mxPoint x="2360" y="2530" as="targetPoint" />
            <mxPoint x="2445.034482758621" y="2480" as="sourcePoint" />
          </mxGeometry>
        </mxCell>
        <mxCell id="X861MBzPfUZEkW0-GhYv-328" value="etapa" style="text;html=1;align=center;verticalAlign=middle;resizable=0;points=[];autosize=1;strokeColor=none;fillColor=none;" vertex="1" parent="1">
          <mxGeometry x="2425" y="2395" width="50" height="20" as="geometry" />
        </mxCell>
        <mxCell id="X861MBzPfUZEkW0-GhYv-329" value="descripCur" style="text;html=1;align=center;verticalAlign=middle;resizable=0;points=[];autosize=1;strokeColor=none;fillColor=none;" vertex="1" parent="1">
          <mxGeometry x="2530" y="2415" width="70" height="20" as="geometry" />
        </mxCell>
        <mxCell id="X861MBzPfUZEkW0-GhYv-330" style="edgeStyle=orthogonalEdgeStyle;rounded=0;orthogonalLoop=1;jettySize=auto;html=1;endArrow=oval;endFill=1;" edge="1" parent="1" source="X861MBzPfUZEkW0-GhYv-303" target="X861MBzPfUZEkW0-GhYv-331">
          <mxGeometry relative="1" as="geometry">
            <mxPoint x="2652.4700000000003" y="2440" as="targetPoint" />
            <mxPoint x="2647.4700000000003" y="2405" as="sourcePoint" />
          </mxGeometry>
        </mxCell>
        <mxCell id="X861MBzPfUZEkW0-GhYv-331" value="COD_CUR" style="text;html=1;align=center;verticalAlign=middle;resizable=0;points=[];autosize=1;strokeColor=none;fillColor=none;" vertex="1" parent="1">
          <mxGeometry x="2650" y="2400" width="70" height="20" as="geometry" />
        </mxCell>
        <mxCell id="X861MBzPfUZEkW0-GhYv-332" value="ESO,Bachillerato,FPGS,FPGM,FPB,FPCE" style="text;html=1;align=center;verticalAlign=middle;resizable=0;points=[];autosize=1;strokeColor=none;fillColor=none;" vertex="1" parent="1">
          <mxGeometry x="2290" y="2445" width="240" height="20" as="geometry" />
        </mxCell>
        <mxCell id="X861MBzPfUZEkW0-GhYv-333" value="Perfil" style="text;html=1;align=center;verticalAlign=middle;resizable=0;points=[];autosize=1;strokeColor=none;fillColor=none;" vertex="1" parent="1">
          <mxGeometry x="3060" y="1610" width="40" height="20" as="geometry" />
        </mxCell>
        <mxCell id="X861MBzPfUZEkW0-GhYv-334" value="alumnos" style="text;html=1;align=center;verticalAlign=middle;resizable=0;points=[];autosize=1;strokeColor=none;fillColor=none;" vertex="1" parent="1">
          <mxGeometry x="2480" y="1900" width="60" height="20" as="geometry" />
        </mxCell>
        <mxCell id="X861MBzPfUZEkW0-GhYv-335" value="ID_GRUPO" style="text;html=1;align=center;verticalAlign=middle;resizable=0;points=[];autosize=1;strokeColor=none;fillColor=none;" vertex="1" parent="1">
          <mxGeometry x="2390" y="1895" width="90" height="30" as="geometry" />
        </mxCell>
        <mxCell id="X861MBzPfUZEkW0-GhYv-336" value="COD_GRUP" style="text;html=1;align=center;verticalAlign=middle;resizable=0;points=[];autosize=1;strokeColor=none;fillColor=none;" vertex="1" parent="1">
          <mxGeometry x="2330" y="1890" width="80" height="20" as="geometry" />
        </mxCell>
        <mxCell id="X861MBzPfUZEkW0-GhYv-337" style="edgeStyle=orthogonalEdgeStyle;rounded=0;orthogonalLoop=1;jettySize=auto;html=1;endArrow=oval;endFill=1;exitX=0.534;exitY=-0.011;exitDx=0;exitDy=0;entryX=0.419;entryY=1.044;entryDx=0;entryDy=0;entryPerimeter=0;exitPerimeter=0;" edge="1" parent="1" source="X861MBzPfUZEkW0-GhYv-299" target="X861MBzPfUZEkW0-GhYv-335">
          <mxGeometry relative="1" as="geometry">
            <mxPoint x="2429.54" y="1898" as="targetPoint" />
            <mxPoint x="2429.5" y="1870" as="sourcePoint" />
          </mxGeometry>
        </mxCell>
        <mxCell id="X861MBzPfUZEkW0-GhYv-338" style="edgeStyle=orthogonalEdgeStyle;rounded=0;orthogonalLoop=1;jettySize=auto;html=1;endArrow=oval;endFill=0;exitX=0.94;exitY=0.023;exitDx=0;exitDy=0;entryX=0.222;entryY=1.121;entryDx=0;entryDy=0;entryPerimeter=0;exitPerimeter=0;" edge="1" parent="1" source="X861MBzPfUZEkW0-GhYv-299" target="X861MBzPfUZEkW0-GhYv-334">
          <mxGeometry relative="1" as="geometry">
            <mxPoint x="2490.04" y="1898" as="targetPoint" />
            <mxPoint x="2490" y="1870" as="sourcePoint" />
          </mxGeometry>
        </mxCell>
        <mxCell id="X861MBzPfUZEkW0-GhYv-339" style="edgeStyle=orthogonalEdgeStyle;rounded=0;orthogonalLoop=1;jettySize=auto;html=1;endArrow=oval;endFill=1;exitX=0.213;exitY=0.015;exitDx=0;exitDy=0;entryX=0.773;entryY=1.185;entryDx=0;entryDy=0;entryPerimeter=0;exitPerimeter=0;" edge="1" parent="1" source="X861MBzPfUZEkW0-GhYv-299" target="X861MBzPfUZEkW0-GhYv-336">
          <mxGeometry relative="1" as="geometry">
            <mxPoint x="2390" y="1880" as="targetPoint" />
            <mxPoint x="2390" y="1870" as="sourcePoint" />
          </mxGeometry>
        </mxCell>
        <mxCell id="X861MBzPfUZEkW0-GhYv-340" style="rounded=0;orthogonalLoop=1;jettySize=auto;html=1;endArrow=classic;endFill=1;exitX=1;exitY=0.75;exitDx=0;exitDy=0;" edge="1" parent="1" source="X861MBzPfUZEkW0-GhYv-353" target="X861MBzPfUZEkW0-GhYv-355">
          <mxGeometry relative="1" as="geometry">
            <mxPoint x="3160" y="2160" as="sourcePoint" />
          </mxGeometry>
        </mxCell>
        <mxCell id="X861MBzPfUZEkW0-GhYv-341" style="edgeStyle=none;rounded=0;orthogonalLoop=1;jettySize=auto;html=1;endArrow=oval;endFill=0;entryX=1;entryY=0.5;entryDx=0;entryDy=0;entryPerimeter=0;" edge="1" parent="1" source="X861MBzPfUZEkW0-GhYv-353" target="X861MBzPfUZEkW0-GhYv-369">
          <mxGeometry relative="1" as="geometry">
            <mxPoint x="2822.5" y="2120" as="targetPoint" />
          </mxGeometry>
        </mxCell>
        <mxCell id="X861MBzPfUZEkW0-GhYv-342" style="edgeStyle=none;rounded=0;orthogonalLoop=1;jettySize=auto;html=1;endArrow=oval;endFill=0;" edge="1" parent="1" source="X861MBzPfUZEkW0-GhYv-353" target="X861MBzPfUZEkW0-GhYv-370">
          <mxGeometry relative="1" as="geometry">
            <mxPoint x="2832.5" y="2090" as="targetPoint" />
          </mxGeometry>
        </mxCell>
        <mxCell id="X861MBzPfUZEkW0-GhYv-343" style="edgeStyle=none;rounded=0;orthogonalLoop=1;jettySize=auto;html=1;endArrow=oval;endFill=0;" edge="1" parent="1" target="X861MBzPfUZEkW0-GhYv-554">
          <mxGeometry relative="1" as="geometry">
            <mxPoint x="2339.3599999999997" y="1961.1800000000003" as="targetPoint" />
            <mxPoint x="2370" y="1961.6633333333334" as="sourcePoint" />
          </mxGeometry>
        </mxCell>
        <mxCell id="X861MBzPfUZEkW0-GhYv-344" style="edgeStyle=none;rounded=0;orthogonalLoop=1;jettySize=auto;html=1;endArrow=oval;endFill=0;" edge="1" parent="1" source="X861MBzPfUZEkW0-GhYv-353" target="X861MBzPfUZEkW0-GhYv-372">
          <mxGeometry relative="1" as="geometry">
            <mxPoint x="2902.5" y="2180" as="targetPoint" />
          </mxGeometry>
        </mxCell>
        <mxCell id="X861MBzPfUZEkW0-GhYv-345" style="edgeStyle=none;rounded=0;orthogonalLoop=1;jettySize=auto;html=1;endArrow=oval;endFill=0;entryX=0.62;entryY=1.098;entryDx=0;entryDy=0;entryPerimeter=0;" edge="1" parent="1" source="X861MBzPfUZEkW0-GhYv-353" target="X861MBzPfUZEkW0-GhYv-373">
          <mxGeometry relative="1" as="geometry">
            <mxPoint x="2862.5" y="2070.0000000000005" as="targetPoint" />
          </mxGeometry>
        </mxCell>
        <mxCell id="X861MBzPfUZEkW0-GhYv-346" style="edgeStyle=none;rounded=0;orthogonalLoop=1;jettySize=auto;html=1;entryX=0.75;entryY=0;entryDx=0;entryDy=0;entryPerimeter=0;endArrow=oval;endFill=0;" edge="1" parent="1" source="X861MBzPfUZEkW0-GhYv-353" target="X861MBzPfUZEkW0-GhYv-374">
          <mxGeometry relative="1" as="geometry" />
        </mxCell>
        <mxCell id="X861MBzPfUZEkW0-GhYv-347" style="edgeStyle=none;rounded=0;orthogonalLoop=1;jettySize=auto;html=1;endArrow=oval;endFill=0;entryX=0.357;entryY=0;entryDx=0;entryDy=0;entryPerimeter=0;" edge="1" parent="1" source="X861MBzPfUZEkW0-GhYv-353" target="X861MBzPfUZEkW0-GhYv-427">
          <mxGeometry relative="1" as="geometry">
            <mxPoint x="2972.5" y="2180" as="targetPoint" />
            <Array as="points" />
          </mxGeometry>
        </mxCell>
        <mxCell id="X861MBzPfUZEkW0-GhYv-348" style="edgeStyle=none;rounded=0;orthogonalLoop=1;jettySize=auto;html=1;endArrow=oval;endFill=0;" edge="1" parent="1" source="X861MBzPfUZEkW0-GhYv-353" target="X861MBzPfUZEkW0-GhYv-434">
          <mxGeometry relative="1" as="geometry">
            <mxPoint x="3012.5" y="2120.0000000000005" as="targetPoint" />
          </mxGeometry>
        </mxCell>
        <mxCell id="X861MBzPfUZEkW0-GhYv-349" style="edgeStyle=none;rounded=0;orthogonalLoop=1;jettySize=auto;html=1;endArrow=oval;endFill=0;" edge="1" parent="1" source="X861MBzPfUZEkW0-GhYv-353" target="X861MBzPfUZEkW0-GhYv-375">
          <mxGeometry relative="1" as="geometry">
            <mxPoint x="3002.5" y="2100.0000000000005" as="targetPoint" />
          </mxGeometry>
        </mxCell>
        <mxCell id="X861MBzPfUZEkW0-GhYv-350" style="edgeStyle=none;rounded=0;orthogonalLoop=1;jettySize=auto;html=1;entryX=0.085;entryY=1.075;entryDx=0;entryDy=0;entryPerimeter=0;endArrow=oval;endFill=0;" edge="1" parent="1" source="X861MBzPfUZEkW0-GhYv-353" target="X861MBzPfUZEkW0-GhYv-376">
          <mxGeometry relative="1" as="geometry" />
        </mxCell>
        <mxCell id="X861MBzPfUZEkW0-GhYv-351" style="edgeStyle=none;rounded=0;orthogonalLoop=1;jettySize=auto;html=1;entryX=-0.045;entryY=0.2;entryDx=0;entryDy=0;entryPerimeter=0;endArrow=oval;endFill=0;" edge="1" parent="1" source="X861MBzPfUZEkW0-GhYv-353" target="X861MBzPfUZEkW0-GhYv-384">
          <mxGeometry relative="1" as="geometry" />
        </mxCell>
        <mxCell id="X861MBzPfUZEkW0-GhYv-352" style="edgeStyle=orthogonalEdgeStyle;rounded=0;orthogonalLoop=1;jettySize=auto;html=1;endArrow=oval;endFill=1;" edge="1" parent="1">
          <mxGeometry relative="1" as="geometry">
            <Array as="points">
              <mxPoint x="2808.5" y="2090" />
            </Array>
            <mxPoint x="2812.5" y="2090" as="targetPoint" />
            <mxPoint x="2860" y="2090" as="sourcePoint" />
          </mxGeometry>
        </mxCell>
        <mxCell id="X861MBzPfUZEkW0-GhYv-353" value="Solicitud" style="whiteSpace=wrap;html=1;" vertex="1" parent="1">
          <mxGeometry x="2862.5" y="2090" width="120" height="60" as="geometry" />
        </mxCell>
        <mxCell id="X861MBzPfUZEkW0-GhYv-354" style="rounded=0;orthogonalLoop=1;jettySize=auto;html=1;entryX=0;entryY=0.667;entryDx=0;entryDy=0;endArrow=classic;endFill=1;entryPerimeter=0;" edge="1" parent="1" source="X861MBzPfUZEkW0-GhYv-355" target="X861MBzPfUZEkW0-GhYv-296">
          <mxGeometry relative="1" as="geometry">
            <Array as="points" />
          </mxGeometry>
        </mxCell>
        <mxCell id="X861MBzPfUZEkW0-GhYv-355" value="Procede" style="rhombus;whiteSpace=wrap;html=1;" vertex="1" parent="1">
          <mxGeometry x="3200" y="2225" width="80" height="80" as="geometry" />
        </mxCell>
        <mxCell id="X861MBzPfUZEkW0-GhYv-356" style="edgeStyle=none;rounded=0;orthogonalLoop=1;jettySize=auto;html=1;endArrow=oval;endFill=0;" edge="1" parent="1" source="X861MBzPfUZEkW0-GhYv-358" target="X861MBzPfUZEkW0-GhYv-361">
          <mxGeometry relative="1" as="geometry">
            <mxPoint x="3268.32" y="2530" as="targetPoint" />
          </mxGeometry>
        </mxCell>
        <mxCell id="X861MBzPfUZEkW0-GhYv-357" style="edgeStyle=none;rounded=0;orthogonalLoop=1;jettySize=auto;html=1;endArrow=oval;endFill=1;" edge="1" parent="1" source="X861MBzPfUZEkW0-GhYv-358" target="X861MBzPfUZEkW0-GhYv-362">
          <mxGeometry relative="1" as="geometry">
            <mxPoint x="3185" y="2510" as="targetPoint" />
          </mxGeometry>
        </mxCell>
        <mxCell id="X861MBzPfUZEkW0-GhYv-358" value="Medio de transporte" style="whiteSpace=wrap;html=1;" vertex="1" parent="1">
          <mxGeometry x="3340" y="2275" width="120" height="60" as="geometry" />
        </mxCell>
        <mxCell id="X861MBzPfUZEkW0-GhYv-359" style="edgeStyle=none;rounded=0;orthogonalLoop=1;jettySize=auto;html=1;endArrow=classic;endFill=1;exitX=0.204;exitY=0.755;exitDx=0;exitDy=0;exitPerimeter=0;entryX=1;entryY=0.5;entryDx=0;entryDy=0;" edge="1" parent="1" source="X861MBzPfUZEkW0-GhYv-360" target="X861MBzPfUZEkW0-GhYv-358">
          <mxGeometry relative="1" as="geometry">
            <mxPoint x="3310.82" y="2389.71" as="targetPoint" />
            <mxPoint x="3375.8199999999997" y="2389.71" as="sourcePoint" />
          </mxGeometry>
        </mxCell>
        <mxCell id="X861MBzPfUZEkW0-GhYv-360" value="Usa" style="rhombus;whiteSpace=wrap;html=1;" vertex="1" parent="1">
          <mxGeometry x="3485" y="2255" width="80" height="80" as="geometry" />
        </mxCell>
        <mxCell id="X861MBzPfUZEkW0-GhYv-361" value="tipoTransporte" style="text;html=1;align=center;verticalAlign=middle;resizable=0;points=[];autosize=1;strokeColor=none;fillColor=none;" vertex="1" parent="1">
          <mxGeometry x="3340" y="2360" width="90" height="20" as="geometry" />
        </mxCell>
        <mxCell id="X861MBzPfUZEkW0-GhYv-362" value="idTransporte" style="text;html=1;align=center;verticalAlign=middle;resizable=0;points=[];autosize=1;strokeColor=none;fillColor=none;" vertex="1" parent="1">
          <mxGeometry x="3253.3199999999997" y="2340" width="80" height="20" as="geometry" />
        </mxCell>
        <mxCell id="X861MBzPfUZEkW0-GhYv-363" style="edgeStyle=none;rounded=0;orthogonalLoop=1;jettySize=auto;html=1;entryX=0.494;entryY=-0.075;entryDx=0;entryDy=0;entryPerimeter=0;endArrow=oval;endFill=0;exitX=0.824;exitY=0.988;exitDx=0;exitDy=0;exitPerimeter=0;" edge="1" parent="1" source="X861MBzPfUZEkW0-GhYv-365" target="X861MBzPfUZEkW0-GhYv-368">
          <mxGeometry relative="1" as="geometry" />
        </mxCell>
        <mxCell id="X861MBzPfUZEkW0-GhYv-364" style="edgeStyle=none;rounded=0;orthogonalLoop=1;jettySize=auto;html=1;entryX=0.683;entryY=0.075;entryDx=0;entryDy=0;entryPerimeter=0;endArrow=oval;endFill=1;exitX=0.205;exitY=0.988;exitDx=0;exitDy=0;exitPerimeter=0;" edge="1" parent="1" source="X861MBzPfUZEkW0-GhYv-365" target="X861MBzPfUZEkW0-GhYv-367">
          <mxGeometry relative="1" as="geometry" />
        </mxCell>
        <mxCell id="X861MBzPfUZEkW0-GhYv-365" value="Fotos" style="whiteSpace=wrap;html=1;" vertex="1" parent="1">
          <mxGeometry x="3787.5" y="2110" width="105" height="40" as="geometry" />
        </mxCell>
        <mxCell id="X861MBzPfUZEkW0-GhYv-366" value="Tiene" style="rhombus;whiteSpace=wrap;html=1;" vertex="1" parent="1">
          <mxGeometry x="3670" y="2110" width="70" height="50" as="geometry" />
        </mxCell>
        <mxCell id="X861MBzPfUZEkW0-GhYv-367" value="idFotos" style="text;html=1;align=center;verticalAlign=middle;resizable=0;points=[];autosize=1;strokeColor=none;fillColor=none;" vertex="1" parent="1">
          <mxGeometry x="3752.5" y="2165" width="50" height="20" as="geometry" />
        </mxCell>
        <mxCell id="X861MBzPfUZEkW0-GhYv-368" value="Descripcion" style="text;html=1;align=center;verticalAlign=middle;resizable=0;points=[];autosize=1;strokeColor=none;fillColor=none;" vertex="1" parent="1">
          <mxGeometry x="3840" y="2165" width="80" height="20" as="geometry" />
        </mxCell>
        <mxCell id="X861MBzPfUZEkW0-GhYv-369" value="Solicitante" style="text;html=1;align=center;verticalAlign=middle;resizable=0;points=[];autosize=1;strokeColor=none;fillColor=none;" vertex="1" parent="1">
          <mxGeometry x="2762.5" y="2065" width="70" height="20" as="geometry" />
        </mxCell>
        <mxCell id="X861MBzPfUZEkW0-GhYv-370" value="Departamento" style="text;html=1;align=center;verticalAlign=middle;resizable=0;points=[];autosize=1;strokeColor=none;fillColor=none;" vertex="1" parent="1">
          <mxGeometry x="3082.5" y="2005" width="90" height="20" as="geometry" />
        </mxCell>
        <mxCell id="X861MBzPfUZEkW0-GhYv-371" value="NombreAct" style="text;html=1;align=center;verticalAlign=middle;resizable=0;points=[];autosize=1;strokeColor=none;fillColor=none;" vertex="1" parent="1">
          <mxGeometry x="2747.5" y="2165" width="80" height="20" as="geometry" />
        </mxCell>
        <mxCell id="X861MBzPfUZEkW0-GhYv-372" value="Prevista" style="text;html=1;align=center;verticalAlign=middle;resizable=0;points=[];autosize=1;strokeColor=none;fillColor=none;" vertex="1" parent="1">
          <mxGeometry x="2922.5" y="2235" width="60" height="20" as="geometry" />
        </mxCell>
        <mxCell id="X861MBzPfUZEkW0-GhYv-373" value="&amp;nbsp;Transporte" style="text;html=1;align=center;verticalAlign=middle;resizable=0;points=[];autosize=1;strokeColor=none;fillColor=none;" vertex="1" parent="1">
          <mxGeometry x="2790" y="2040" width="80" height="20" as="geometry" />
        </mxCell>
        <mxCell id="X861MBzPfUZEkW0-GhYv-374" value="FechaInicial" style="text;html=1;align=center;verticalAlign=middle;resizable=0;points=[];autosize=1;strokeColor=none;fillColor=none;" vertex="1" parent="1">
          <mxGeometry x="2762.5" y="2205" width="80" height="20" as="geometry" />
        </mxCell>
        <mxCell id="X861MBzPfUZEkW0-GhYv-375" value="Alojamiento" style="text;html=1;align=center;verticalAlign=middle;resizable=0;points=[];autosize=1;strokeColor=none;fillColor=none;" vertex="1" parent="1">
          <mxGeometry x="3082.5" y="2070" width="80" height="20" as="geometry" />
        </mxCell>
        <mxCell id="X861MBzPfUZEkW0-GhYv-376" value="comentarioAdicional" style="text;html=1;align=center;verticalAlign=middle;resizable=0;points=[];autosize=1;strokeColor=none;fillColor=none;" vertex="1" parent="1">
          <mxGeometry x="3067.5" y="2045" width="120" height="20" as="geometry" />
        </mxCell>
        <mxCell id="X861MBzPfUZEkW0-GhYv-377" value="dapartamento" style="text;html=1;align=center;verticalAlign=middle;resizable=0;points=[];autosize=1;strokeColor=none;fillColor=none;" vertex="1" parent="1">
          <mxGeometry x="3235" y="1780" width="90" height="20" as="geometry" />
        </mxCell>
        <mxCell id="X861MBzPfUZEkW0-GhYv-378" value="IdSolicitud" style="text;html=1;align=center;verticalAlign=middle;resizable=0;points=[];autosize=1;strokeColor=none;fillColor=none;" vertex="1" parent="1">
          <mxGeometry x="3380" y="2030" width="70" height="20" as="geometry" />
        </mxCell>
        <mxCell id="X861MBzPfUZEkW0-GhYv-379" value="ConsultaEstado" style="text;html=1;align=center;verticalAlign=middle;resizable=0;points=[];autosize=1;strokeColor=none;fillColor=none;" vertex="1" parent="1">
          <mxGeometry x="3085" y="1975" width="100" height="20" as="geometry" />
        </mxCell>
        <mxCell id="X861MBzPfUZEkW0-GhYv-380" style="edgeStyle=none;rounded=0;orthogonalLoop=1;jettySize=auto;html=1;entryX=0;entryY=0.5;entryDx=0;entryDy=0;endArrow=classic;endFill=1;exitX=1;exitY=0.5;exitDx=0;exitDy=0;" edge="1" parent="1" source="X861MBzPfUZEkW0-GhYv-366" target="X861MBzPfUZEkW0-GhYv-365">
          <mxGeometry relative="1" as="geometry">
            <mxPoint x="3714.995238095238" y="2173.0952380952385" as="sourcePoint" />
          </mxGeometry>
        </mxCell>
        <mxCell id="X861MBzPfUZEkW0-GhYv-381" value="Transporte" style="text;html=1;align=center;verticalAlign=middle;resizable=0;points=[];autosize=1;strokeColor=none;fillColor=none;" vertex="1" parent="1">
          <mxGeometry x="3555" y="1975" width="70" height="20" as="geometry" />
        </mxCell>
        <mxCell id="X861MBzPfUZEkW0-GhYv-382" value="Presupuesto" style="text;html=1;align=center;verticalAlign=middle;resizable=0;points=[];autosize=1;strokeColor=none;fillColor=none;" vertex="1" parent="1">
          <mxGeometry x="3460" y="1980" width="80" height="20" as="geometry" />
        </mxCell>
        <mxCell id="X861MBzPfUZEkW0-GhYv-383" value="AlumnosParticipantes" style="text;html=1;align=center;verticalAlign=middle;resizable=0;points=[];autosize=1;strokeColor=none;fillColor=none;" vertex="1" parent="1">
          <mxGeometry x="3375" y="2005" width="130" height="20" as="geometry" />
        </mxCell>
        <mxCell id="X861MBzPfUZEkW0-GhYv-384" value="Estado(ENUM)" style="text;html=1;align=center;verticalAlign=middle;resizable=0;points=[];autosize=1;strokeColor=none;fillColor=none;" vertex="1" parent="1">
          <mxGeometry x="3070" y="2125" width="100" height="20" as="geometry" />
        </mxCell>
        <mxCell id="X861MBzPfUZEkW0-GhYv-385" value="(1,1)" style="text;html=1;align=center;verticalAlign=middle;resizable=0;points=[];autosize=1;strokeColor=none;fillColor=none;" vertex="1" parent="1">
          <mxGeometry x="2600" y="2280" width="40" height="20" as="geometry" />
        </mxCell>
        <mxCell id="X861MBzPfUZEkW0-GhYv-386" value="(1,N)" style="text;html=1;align=center;verticalAlign=middle;resizable=0;points=[];autosize=1;strokeColor=none;fillColor=none;" vertex="1" parent="1">
          <mxGeometry x="2430" y="2005" width="40" height="20" as="geometry" />
        </mxCell>
        <mxCell id="X861MBzPfUZEkW0-GhYv-387" value="1:N" style="text;html=1;align=center;verticalAlign=middle;resizable=0;points=[];autosize=1;strokeColor=none;fillColor=none;" vertex="1" parent="1">
          <mxGeometry x="2480" y="2120" width="30" height="20" as="geometry" />
        </mxCell>
        <mxCell id="X861MBzPfUZEkW0-GhYv-388" value="(1:N:N)" style="text;html=1;align=center;verticalAlign=middle;resizable=0;points=[];autosize=1;strokeColor=none;fillColor=none;" vertex="1" parent="1">
          <mxGeometry x="2310" y="1995" width="60" height="30" as="geometry" />
        </mxCell>
        <mxCell id="X861MBzPfUZEkW0-GhYv-389" value="(0,N)" style="text;html=1;align=center;verticalAlign=middle;resizable=0;points=[];autosize=1;strokeColor=none;fillColor=none;" vertex="1" parent="1">
          <mxGeometry x="3435" y="2335" width="50" height="30" as="geometry" />
        </mxCell>
        <mxCell id="X861MBzPfUZEkW0-GhYv-390" value="(0,1)" style="text;html=1;align=center;verticalAlign=middle;resizable=0;points=[];autosize=1;strokeColor=none;fillColor=none;" vertex="1" parent="1">
          <mxGeometry x="3400" y="2175" width="40" height="20" as="geometry" />
        </mxCell>
        <mxCell id="X861MBzPfUZEkW0-GhYv-391" value="(1,1)" style="text;html=1;align=center;verticalAlign=middle;resizable=0;points=[];autosize=1;strokeColor=none;fillColor=none;" vertex="1" parent="1">
          <mxGeometry x="2980" y="2145" width="40" height="20" as="geometry" />
        </mxCell>
        <mxCell id="X861MBzPfUZEkW0-GhYv-392" value="1:1" style="text;html=1;align=center;verticalAlign=middle;resizable=0;points=[];autosize=1;strokeColor=none;fillColor=none;" vertex="1" parent="1">
          <mxGeometry x="3232.5" y="2210" width="30" height="20" as="geometry" />
        </mxCell>
        <mxCell id="X861MBzPfUZEkW0-GhYv-393" value="(0,N)" style="text;html=1;align=center;verticalAlign=middle;resizable=0;points=[];autosize=1;strokeColor=none;fillColor=none;" vertex="1" parent="1">
          <mxGeometry x="3470" y="2170" width="50" height="30" as="geometry" />
        </mxCell>
        <mxCell id="X861MBzPfUZEkW0-GhYv-394" value="(0,N)" style="text;html=1;align=center;verticalAlign=middle;resizable=0;points=[];autosize=1;strokeColor=none;fillColor=none;" vertex="1" parent="1">
          <mxGeometry x="2897.5" y="2060" width="40" height="20" as="geometry" />
        </mxCell>
        <mxCell id="X861MBzPfUZEkW0-GhYv-395" value="(1,N)" style="text;html=1;align=center;verticalAlign=middle;resizable=0;points=[];autosize=1;strokeColor=none;fillColor=none;" vertex="1" parent="1">
          <mxGeometry x="3140" y="1750" width="40" height="20" as="geometry" />
        </mxCell>
        <mxCell id="X861MBzPfUZEkW0-GhYv-396" value="N:M" style="text;html=1;align=center;verticalAlign=middle;resizable=0;points=[];autosize=1;strokeColor=none;fillColor=none;" vertex="1" parent="1">
          <mxGeometry x="3060" y="1910" width="40" height="20" as="geometry" />
        </mxCell>
        <mxCell id="X861MBzPfUZEkW0-GhYv-397" value="(1,N)" style="text;html=1;align=center;verticalAlign=middle;resizable=0;points=[];autosize=1;strokeColor=none;fillColor=none;" vertex="1" parent="1">
          <mxGeometry x="3090" y="1700" width="40" height="20" as="geometry" />
        </mxCell>
        <mxCell id="X861MBzPfUZEkW0-GhYv-398" value="(0,1)" style="text;html=1;align=center;verticalAlign=middle;resizable=0;points=[];autosize=1;strokeColor=none;fillColor=none;" vertex="1" parent="1">
          <mxGeometry x="3690" y="1730" width="40" height="20" as="geometry" />
        </mxCell>
        <mxCell id="X861MBzPfUZEkW0-GhYv-399" value="(1,1)" style="text;html=1;align=center;verticalAlign=middle;resizable=0;points=[];autosize=1;strokeColor=none;fillColor=none;" vertex="1" parent="1">
          <mxGeometry x="3253.3199999999997" y="1690" width="40" height="20" as="geometry" />
        </mxCell>
        <mxCell id="X861MBzPfUZEkW0-GhYv-400" value="(1,1)" style="text;html=1;align=center;verticalAlign=middle;resizable=0;points=[];autosize=1;strokeColor=none;fillColor=none;" vertex="1" parent="1">
          <mxGeometry x="3615" y="1770" width="40" height="20" as="geometry" />
        </mxCell>
        <mxCell id="X861MBzPfUZEkW0-GhYv-401" value="1:1" style="text;html=1;align=center;verticalAlign=middle;resizable=0;points=[];autosize=1;strokeColor=none;fillColor=none;" vertex="1" parent="1">
          <mxGeometry x="3505" y="1710" width="30" height="20" as="geometry" />
        </mxCell>
        <mxCell id="X861MBzPfUZEkW0-GhYv-402" value="(1,N)" style="text;html=1;align=center;verticalAlign=middle;resizable=0;points=[];autosize=1;strokeColor=none;fillColor=none;" vertex="1" parent="1">
          <mxGeometry x="3260" y="1743" width="40" height="20" as="geometry" />
        </mxCell>
        <mxCell id="X861MBzPfUZEkW0-GhYv-403" value="1:N" style="text;html=1;align=center;verticalAlign=middle;resizable=0;points=[];autosize=1;strokeColor=none;fillColor=none;" vertex="1" parent="1">
          <mxGeometry x="3500" y="1875" width="30" height="20" as="geometry" />
        </mxCell>
        <mxCell id="X861MBzPfUZEkW0-GhYv-404" value="Cod_DE" style="text;html=1;align=center;verticalAlign=middle;resizable=0;points=[];autosize=1;strokeColor=none;fillColor=none;" vertex="1" parent="1">
          <mxGeometry x="3820" y="1770" width="60" height="20" as="geometry" />
        </mxCell>
        <mxCell id="X861MBzPfUZEkW0-GhYv-405" value="rol" style="text;html=1;align=center;verticalAlign=middle;resizable=0;points=[];autosize=1;strokeColor=none;fillColor=none;" vertex="1" parent="1">
          <mxGeometry x="2892.5" y="1910" width="30" height="20" as="geometry" />
        </mxCell>
        <mxCell id="X861MBzPfUZEkW0-GhYv-406" value="Participan" style="rhombus;whiteSpace=wrap;html=1;" vertex="1" parent="1">
          <mxGeometry x="2610" y="1970" width="80" height="80" as="geometry" />
        </mxCell>
        <mxCell id="X861MBzPfUZEkW0-GhYv-407" style="edgeStyle=orthogonalEdgeStyle;rounded=0;orthogonalLoop=1;jettySize=auto;html=1;entryX=0.5;entryY=1;entryDx=0;entryDy=0;endArrow=classic;endFill=1;" edge="1" parent="1" source="X861MBzPfUZEkW0-GhYv-408" target="X861MBzPfUZEkW0-GhYv-353">
          <mxGeometry relative="1" as="geometry" />
        </mxCell>
        <mxCell id="X861MBzPfUZEkW0-GhYv-408" value="Participan" style="rhombus;whiteSpace=wrap;html=1;" vertex="1" parent="1">
          <mxGeometry x="2882.5" y="2315" width="80" height="80" as="geometry" />
        </mxCell>
        <mxCell id="X861MBzPfUZEkW0-GhYv-409" value="N:M" style="text;html=1;align=center;verticalAlign=middle;resizable=0;points=[];autosize=1;strokeColor=none;fillColor=none;" vertex="1" parent="1">
          <mxGeometry x="2817.5" y="2315" width="50" height="30" as="geometry" />
        </mxCell>
        <mxCell id="X861MBzPfUZEkW0-GhYv-410" value="N:M" style="text;html=1;align=center;verticalAlign=middle;resizable=0;points=[];autosize=1;strokeColor=none;fillColor=none;" vertex="1" parent="1">
          <mxGeometry x="2625" y="2055" width="50" height="30" as="geometry" />
        </mxCell>
        <mxCell id="X861MBzPfUZEkW0-GhYv-411" value="id_Solicitud" style="text;html=1;align=center;verticalAlign=middle;resizable=0;points=[];autosize=1;strokeColor=none;fillColor=none;" vertex="1" parent="1">
          <mxGeometry x="2772.5" y="2095" width="80" height="20" as="geometry" />
        </mxCell>
        <mxCell id="X861MBzPfUZEkW0-GhYv-412" value="N:M" style="text;html=1;align=center;verticalAlign=middle;resizable=0;points=[];autosize=1;strokeColor=none;fillColor=none;" vertex="1" parent="1">
          <mxGeometry x="3540" y="2310" width="50" height="30" as="geometry" />
        </mxCell>
        <mxCell id="X861MBzPfUZEkW0-GhYv-413" value="(0,N)" style="text;html=1;align=center;verticalAlign=middle;resizable=0;points=[];autosize=1;strokeColor=none;fillColor=none;" vertex="1" parent="1">
          <mxGeometry x="2882.5" y="2165" width="50" height="30" as="geometry" />
        </mxCell>
        <mxCell id="X861MBzPfUZEkW0-GhYv-414" value="(0,N)" style="text;html=1;align=center;verticalAlign=middle;resizable=0;points=[];autosize=1;strokeColor=none;fillColor=none;" vertex="1" parent="1">
          <mxGeometry x="2675" y="2305" width="50" height="30" as="geometry" />
        </mxCell>
        <mxCell id="X861MBzPfUZEkW0-GhYv-415" value="(0,N)" style="text;html=1;align=center;verticalAlign=middle;resizable=0;points=[];autosize=1;strokeColor=none;fillColor=none;" vertex="1" parent="1">
          <mxGeometry x="2485" y="1945" width="50" height="30" as="geometry" />
        </mxCell>
        <mxCell id="X861MBzPfUZEkW0-GhYv-416" value="(0,N)" style="text;html=1;align=center;verticalAlign=middle;resizable=0;points=[];autosize=1;strokeColor=none;fillColor=none;" vertex="1" parent="1">
          <mxGeometry x="2802.5" y="2120" width="50" height="30" as="geometry" />
        </mxCell>
        <mxCell id="X861MBzPfUZEkW0-GhYv-417" value="estadoCur" style="text;html=1;align=center;verticalAlign=middle;resizable=0;points=[];autosize=1;strokeColor=none;fillColor=none;" vertex="1" parent="1">
          <mxGeometry x="2460" y="2260" width="70" height="20" as="geometry" />
        </mxCell>
        <mxCell id="X861MBzPfUZEkW0-GhYv-418" value="AlumnosTotales" style="text;html=1;align=center;verticalAlign=middle;resizable=0;points=[];autosize=1;strokeColor=none;fillColor=none;" vertex="1" parent="1">
          <mxGeometry x="2380" y="2300" width="100" height="20" as="geometry" />
        </mxCell>
        <mxCell id="X861MBzPfUZEkW0-GhYv-419" style="edgeStyle=none;rounded=0;orthogonalLoop=1;jettySize=auto;html=1;endArrow=oval;endFill=0;exitX=0;exitY=0.5;exitDx=0;exitDy=0;entryX=0.724;entryY=0.979;entryDx=0;entryDy=0;entryPerimeter=0;" edge="1" parent="1" source="X861MBzPfUZEkW0-GhYv-303" target="X861MBzPfUZEkW0-GhYv-418">
          <mxGeometry relative="1" as="geometry">
            <mxPoint x="2340" y="2425" as="targetPoint" />
            <mxPoint x="2360" y="2418.3333333333335" as="sourcePoint" />
          </mxGeometry>
        </mxCell>
        <mxCell id="X861MBzPfUZEkW0-GhYv-420" style="edgeStyle=none;rounded=0;orthogonalLoop=1;jettySize=auto;html=1;endArrow=oval;endFill=0;exitX=0;exitY=0.25;exitDx=0;exitDy=0;entryX=0.807;entryY=0.95;entryDx=0;entryDy=0;entryPerimeter=0;" edge="1" parent="1" source="X861MBzPfUZEkW0-GhYv-303" target="X861MBzPfUZEkW0-GhYv-417">
          <mxGeometry relative="1" as="geometry">
            <mxPoint x="2490" y="2280" as="targetPoint" />
            <mxPoint x="2360" y="2460.0033333333336" as="sourcePoint" />
            <Array as="points" />
          </mxGeometry>
        </mxCell>
        <mxCell id="X861MBzPfUZEkW0-GhYv-421" style="edgeStyle=none;rounded=0;orthogonalLoop=1;jettySize=auto;html=1;endArrow=oval;endFill=0;entryX=0.507;entryY=-0.143;entryDx=0;entryDy=0;entryPerimeter=0;" edge="1" parent="1" target="X861MBzPfUZEkW0-GhYv-319">
          <mxGeometry relative="1" as="geometry">
            <mxPoint x="3194.284285714286" y="1750.0000000000005" as="sourcePoint" />
            <mxPoint x="3234.9985714285717" y="1780.0000000000005" as="targetPoint" />
          </mxGeometry>
        </mxCell>
        <mxCell id="X861MBzPfUZEkW0-GhYv-422" style="edgeStyle=orthogonalEdgeStyle;rounded=0;orthogonalLoop=1;jettySize=auto;html=1;endArrow=oval;endFill=0;" edge="1" parent="1">
          <mxGeometry relative="1" as="geometry">
            <mxPoint x="3280" y="1670" as="targetPoint" />
            <mxPoint x="3282" y="1689.1799999999998" as="sourcePoint" />
            <Array as="points">
              <mxPoint x="3295" y="1689" />
              <mxPoint x="3280" y="1689" />
            </Array>
          </mxGeometry>
        </mxCell>
        <mxCell id="X861MBzPfUZEkW0-GhYv-423" style="edgeStyle=none;rounded=0;orthogonalLoop=1;jettySize=auto;html=1;endArrow=oval;endFill=0;exitX=0.25;exitY=1;exitDx=0;exitDy=0;" edge="1" parent="1" source="X861MBzPfUZEkW0-GhYv-353" target="X861MBzPfUZEkW0-GhYv-425">
          <mxGeometry relative="1" as="geometry">
            <mxPoint x="2885" y="2150" as="sourcePoint" />
            <mxPoint x="2842.5" y="2200" as="targetPoint" />
          </mxGeometry>
        </mxCell>
        <mxCell id="X861MBzPfUZEkW0-GhYv-424" style="edgeStyle=none;rounded=0;orthogonalLoop=1;jettySize=auto;html=1;endArrow=oval;endFill=0;entryX=0.938;entryY=0.5;entryDx=0;entryDy=0;entryPerimeter=0;" edge="1" parent="1" target="X861MBzPfUZEkW0-GhYv-371">
          <mxGeometry relative="1" as="geometry">
            <mxPoint x="2862.5" y="2130" as="sourcePoint" />
            <mxPoint x="2812.5" y="2170" as="targetPoint" />
          </mxGeometry>
        </mxCell>
        <mxCell id="X861MBzPfUZEkW0-GhYv-425" value="HoraInicial" style="text;html=1;align=center;verticalAlign=middle;resizable=0;points=[];autosize=1;strokeColor=none;fillColor=none;" vertex="1" parent="1">
          <mxGeometry x="2832.5" y="2205" width="70" height="20" as="geometry" />
        </mxCell>
        <mxCell id="X861MBzPfUZEkW0-GhYv-426" style="edgeStyle=none;rounded=0;orthogonalLoop=1;jettySize=auto;html=1;endArrow=oval;endFill=0;exitX=0.813;exitY=1.026;exitDx=0;exitDy=0;exitPerimeter=0;" edge="1" parent="1" source="X861MBzPfUZEkW0-GhYv-353" target="X861MBzPfUZEkW0-GhYv-428">
          <mxGeometry relative="1" as="geometry">
            <mxPoint x="3032.5" y="2200" as="targetPoint" />
            <mxPoint x="2977.5" y="2150" as="sourcePoint" />
            <Array as="points">
              <mxPoint x="3000" y="2200" />
            </Array>
          </mxGeometry>
        </mxCell>
        <mxCell id="X861MBzPfUZEkW0-GhYv-427" value="FechaFinal" style="text;html=1;align=center;verticalAlign=middle;resizable=0;points=[];autosize=1;strokeColor=none;fillColor=none;" vertex="1" parent="1">
          <mxGeometry x="2975" y="2265" width="70" height="20" as="geometry" />
        </mxCell>
        <mxCell id="X861MBzPfUZEkW0-GhYv-428" value="HoraFinal" style="text;html=1;align=center;verticalAlign=middle;resizable=0;points=[];autosize=1;strokeColor=none;fillColor=none;" vertex="1" parent="1">
          <mxGeometry x="3015" y="2240" width="70" height="20" as="geometry" />
        </mxCell>
        <mxCell id="X861MBzPfUZEkW0-GhYv-429" value="Solicitante" style="text;html=1;align=center;verticalAlign=middle;resizable=0;points=[];autosize=1;strokeColor=none;fillColor=none;" vertex="1" parent="1">
          <mxGeometry x="3515" y="2000" width="70" height="20" as="geometry" />
        </mxCell>
        <mxCell id="X861MBzPfUZEkW0-GhYv-430" style="edgeStyle=none;rounded=0;orthogonalLoop=1;jettySize=auto;html=1;endArrow=oval;endFill=0;exitX=0.368;exitY=1.068;exitDx=0;exitDy=0;exitPerimeter=0;" edge="1" parent="1" source="X861MBzPfUZEkW0-GhYv-365" target="X861MBzPfUZEkW0-GhYv-432">
          <mxGeometry relative="1" as="geometry">
            <mxPoint x="3770" y="2210" as="targetPoint" />
            <mxPoint x="3780.0033333333336" y="2240" as="sourcePoint" />
          </mxGeometry>
        </mxCell>
        <mxCell id="X861MBzPfUZEkW0-GhYv-431" style="edgeStyle=none;rounded=0;orthogonalLoop=1;jettySize=auto;html=1;endArrow=oval;endFill=0;exitX=0.85;exitY=0.002;exitDx=0;exitDy=0;exitPerimeter=0;" edge="1" parent="1" source="X861MBzPfUZEkW0-GhYv-365" target="X861MBzPfUZEkW0-GhYv-433">
          <mxGeometry relative="1" as="geometry">
            <mxPoint x="3865" y="2300" as="targetPoint" />
            <mxPoint x="3795.0033333333336" y="2350" as="sourcePoint" />
          </mxGeometry>
        </mxCell>
        <mxCell id="X861MBzPfUZEkW0-GhYv-432" value="url" style="text;html=1;align=center;verticalAlign=middle;resizable=0;points=[];autosize=1;strokeColor=none;fillColor=none;" vertex="1" parent="1">
          <mxGeometry x="3815" y="2170" width="30" height="20" as="geometry" />
        </mxCell>
        <mxCell id="X861MBzPfUZEkW0-GhYv-433" value="id_actividad" style="text;html=1;align=center;verticalAlign=middle;resizable=0;points=[];autosize=1;strokeColor=none;fillColor=none;" vertex="1" parent="1">
          <mxGeometry x="3840" y="2075" width="80" height="20" as="geometry" />
        </mxCell>
        <mxCell id="X861MBzPfUZEkW0-GhYv-434" value="AlumnosMax" style="text;html=1;align=center;verticalAlign=middle;resizable=0;points=[];autosize=1;strokeColor=none;fillColor=none;" vertex="1" parent="1">
          <mxGeometry x="3070" y="2095" width="80" height="20" as="geometry" />
        </mxCell>
        <mxCell id="X861MBzPfUZEkW0-GhYv-435" value="&lt;blockquote style=&quot;margin: 0 0 0 40px; border: none; padding: 0px;&quot;&gt;TipoAct(ENUM)&lt;/blockquote&gt;" style="text;html=1;align=center;verticalAlign=middle;resizable=0;points=[];autosize=1;strokeColor=none;fillColor=none;" vertex="1" parent="1">
          <mxGeometry x="2807.5" y="2020" width="140" height="20" as="geometry" />
        </mxCell>
        <mxCell id="X861MBzPfUZEkW0-GhYv-436" style="edgeStyle=orthogonalEdgeStyle;rounded=0;orthogonalLoop=1;jettySize=auto;html=1;endArrow=ERzeroToMany;endFill=0;" edge="1" parent="1">
          <mxGeometry relative="1" as="geometry">
            <mxPoint x="2802.5" y="2000" as="targetPoint" />
            <Array as="points">
              <mxPoint x="2844.5" y="2030" />
              <mxPoint x="2844.5" y="2010" />
            </Array>
            <mxPoint x="2855" y="2030" as="sourcePoint" />
          </mxGeometry>
        </mxCell>
        <mxCell id="X861MBzPfUZEkW0-GhYv-437" value="complementaria" style="text;html=1;align=center;verticalAlign=middle;resizable=0;points=[];autosize=1;strokeColor=none;fillColor=none;" vertex="1" parent="1">
          <mxGeometry x="2802.5" y="1980" width="100" height="20" as="geometry" />
        </mxCell>
        <mxCell id="X861MBzPfUZEkW0-GhYv-438" value="Extraescolar" style="text;html=1;align=center;verticalAlign=middle;resizable=0;points=[];autosize=1;strokeColor=none;fillColor=none;" vertex="1" parent="1">
          <mxGeometry x="2727.5" y="1980" width="80" height="20" as="geometry" />
        </mxCell>
        <mxCell id="X861MBzPfUZEkW0-GhYv-439" value="tiene" style="rhombus;whiteSpace=wrap;html=1;" vertex="1" parent="1">
          <mxGeometry x="3212.5" y="1490" width="80" height="80" as="geometry" />
        </mxCell>
        <mxCell id="X861MBzPfUZEkW0-GhYv-440" value="" style="endArrow=classic;html=1;rounded=0;entryX=0.5;entryY=1;entryDx=0;entryDy=0;exitX=0.75;exitY=0;exitDx=0;exitDy=0;" edge="1" parent="1" source="X861MBzPfUZEkW0-GhYv-280" target="X861MBzPfUZEkW0-GhYv-439">
          <mxGeometry width="50" height="50" relative="1" as="geometry">
            <mxPoint x="3189.29" y="1400" as="sourcePoint" />
            <mxPoint x="4209.29" y="1820" as="targetPoint" />
          </mxGeometry>
        </mxCell>
        <mxCell id="X861MBzPfUZEkW0-GhYv-441" value="" style="endArrow=classic;html=1;rounded=0;exitX=1;exitY=0.5;exitDx=0;exitDy=0;entryX=0;entryY=0.5;entryDx=0;entryDy=0;" edge="1" parent="1" source="X861MBzPfUZEkW0-GhYv-439" target="X861MBzPfUZEkW0-GhYv-442">
          <mxGeometry width="50" height="50" relative="1" as="geometry">
            <mxPoint x="3339.29" y="1720" as="sourcePoint" />
            <mxPoint x="3450" y="1430" as="targetPoint" />
            <Array as="points" />
          </mxGeometry>
        </mxCell>
        <mxCell id="X861MBzPfUZEkW0-GhYv-442" value="usuario" style="whiteSpace=wrap;html=1;" vertex="1" parent="1">
          <mxGeometry x="3360" y="1500" width="120" height="60" as="geometry" />
        </mxCell>
        <mxCell id="X861MBzPfUZEkW0-GhYv-443" style="edgeStyle=orthogonalEdgeStyle;rounded=0;orthogonalLoop=1;jettySize=auto;html=1;endArrow=oval;endFill=1;entryX=0.991;entryY=0.621;entryDx=0;entryDy=0;entryPerimeter=0;" edge="1" parent="1" source="X861MBzPfUZEkW0-GhYv-442" target="X861MBzPfUZEkW0-GhYv-446">
          <mxGeometry relative="1" as="geometry">
            <mxPoint x="3470" y="1350" as="targetPoint" />
            <mxPoint x="3470" y="1400" as="sourcePoint" />
          </mxGeometry>
        </mxCell>
        <mxCell id="X861MBzPfUZEkW0-GhYv-444" style="edgeStyle=orthogonalEdgeStyle;rounded=0;orthogonalLoop=1;jettySize=auto;html=1;endArrow=oval;endFill=0;exitX=0.416;exitY=1.04;exitDx=0;exitDy=0;exitPerimeter=0;entryX=0.486;entryY=-0.008;entryDx=0;entryDy=0;entryPerimeter=0;" edge="1" parent="1" source="X861MBzPfUZEkW0-GhYv-442" target="X861MBzPfUZEkW0-GhYv-445">
          <mxGeometry relative="1" as="geometry">
            <mxPoint x="3410" y="1600" as="targetPoint" />
            <mxPoint x="3410" y="1580" as="sourcePoint" />
            <Array as="points">
              <mxPoint x="3410" y="1580" />
              <mxPoint x="3409" y="1580" />
            </Array>
          </mxGeometry>
        </mxCell>
        <mxCell id="X861MBzPfUZEkW0-GhYv-445" value="PWD" style="text;html=1;align=center;verticalAlign=middle;resizable=0;points=[];autosize=1;strokeColor=none;fillColor=none;" vertex="1" parent="1">
          <mxGeometry x="3390" y="1580" width="40" height="20" as="geometry" />
        </mxCell>
        <mxCell id="X861MBzPfUZEkW0-GhYv-446" value="idUsuarios" style="text;html=1;align=center;verticalAlign=middle;resizable=0;points=[];autosize=1;strokeColor=none;fillColor=none;" vertex="1" parent="1">
          <mxGeometry x="3340" y="1450" width="70" height="20" as="geometry" />
        </mxCell>
        <mxCell id="X861MBzPfUZEkW0-GhYv-447" value="Email" style="text;html=1;align=center;verticalAlign=middle;resizable=0;points=[];autosize=1;strokeColor=none;fillColor=none;" vertex="1" parent="1">
          <mxGeometry x="3440" y="1440" width="50" height="20" as="geometry" />
        </mxCell>
        <mxCell id="X861MBzPfUZEkW0-GhYv-448" style="edgeStyle=orthogonalEdgeStyle;rounded=0;orthogonalLoop=1;jettySize=auto;html=1;endArrow=ERzeroToMany;endFill=0;exitX=0.987;exitY=0.351;exitDx=0;exitDy=0;exitPerimeter=0;entryX=0.016;entryY=0.022;entryDx=0;entryDy=0;entryPerimeter=0;" edge="1" parent="1" source="X861MBzPfUZEkW0-GhYv-384" target="X861MBzPfUZEkW0-GhYv-451">
          <mxGeometry relative="1" as="geometry">
            <mxPoint x="3257.5" y="2120" as="targetPoint" />
            <Array as="points">
              <mxPoint x="3167.5" y="2137" />
              <mxPoint x="3167.5" y="2120" />
            </Array>
            <mxPoint x="3177.5" y="2120" as="sourcePoint" />
          </mxGeometry>
        </mxCell>
        <mxCell id="X861MBzPfUZEkW0-GhYv-449" value="solicitado" style="text;html=1;align=center;verticalAlign=middle;resizable=0;points=[];autosize=1;strokeColor=none;fillColor=none;" vertex="1" parent="1">
          <mxGeometry x="3207.5" y="2080" width="70" height="20" as="geometry" />
        </mxCell>
        <mxCell id="X861MBzPfUZEkW0-GhYv-450" value="aprobado" style="text;html=1;align=center;verticalAlign=middle;resizable=0;points=[];autosize=1;strokeColor=none;fillColor=none;" vertex="1" parent="1">
          <mxGeometry x="3207.5" y="2100" width="70" height="20" as="geometry" />
        </mxCell>
        <mxCell id="X861MBzPfUZEkW0-GhYv-451" value="denegado" style="text;html=1;align=center;verticalAlign=middle;resizable=0;points=[];autosize=1;strokeColor=none;fillColor=none;" vertex="1" parent="1">
          <mxGeometry x="3212.5" y="2120" width="70" height="20" as="geometry" />
        </mxCell>
        <mxCell id="X861MBzPfUZEkW0-GhYv-452" value="realizada" style="text;html=1;align=center;verticalAlign=middle;resizable=0;points=[];autosize=1;strokeColor=none;fillColor=none;" vertex="1" parent="1">
          <mxGeometry x="3212.5" y="2140" width="60" height="20" as="geometry" />
        </mxCell>
        <mxCell id="X861MBzPfUZEkW0-GhYv-453" style="edgeStyle=none;rounded=0;orthogonalLoop=1;jettySize=auto;html=1;endArrow=oval;endFill=0;exitX=0;exitY=0.75;exitDx=0;exitDy=0;" edge="1" parent="1" source="X861MBzPfUZEkW0-GhYv-303" target="X861MBzPfUZEkW0-GhYv-328">
          <mxGeometry relative="1" as="geometry">
            <mxPoint x="2462" y="2330" as="targetPoint" />
            <mxPoint x="2570" y="2350" as="sourcePoint" />
          </mxGeometry>
        </mxCell>
        <mxCell id="X861MBzPfUZEkW0-GhYv-454" value="(1,1)" style="text;html=1;align=center;verticalAlign=middle;resizable=0;points=[];autosize=1;strokeColor=none;fillColor=none;" vertex="1" parent="1">
          <mxGeometry x="3320" y="1490" width="40" height="20" as="geometry" />
        </mxCell>
        <mxCell id="X861MBzPfUZEkW0-GhYv-455" value="(1,1)" style="text;html=1;align=center;verticalAlign=middle;resizable=0;points=[];autosize=1;strokeColor=none;fillColor=none;" vertex="1" parent="1">
          <mxGeometry x="3227.5" y="1670" width="40" height="20" as="geometry" />
        </mxCell>
        <mxCell id="X861MBzPfUZEkW0-GhYv-456" value="1:1" style="text;html=1;align=center;verticalAlign=middle;resizable=0;points=[];autosize=1;strokeColor=none;fillColor=none;" vertex="1" parent="1">
          <mxGeometry x="3202.5" y="1480" width="30" height="20" as="geometry" />
        </mxCell>
        <mxCell id="X861MBzPfUZEkW0-GhYv-457" value="" style="endArrow=classic;html=1;rounded=0;entryX=0;entryY=0.5;entryDx=0;entryDy=0;exitX=0.901;exitY=0.666;exitDx=0;exitDy=0;exitPerimeter=0;" edge="1" parent="1" source="X861MBzPfUZEkW0-GhYv-406" target="X861MBzPfUZEkW0-GhYv-353">
          <mxGeometry width="50" height="50" relative="1" as="geometry">
            <mxPoint x="3150" y="1760" as="sourcePoint" />
            <mxPoint x="3025" y="1905" as="targetPoint" />
            <Array as="points">
              <mxPoint x="2680" y="2120" />
            </Array>
          </mxGeometry>
        </mxCell>
        <mxCell id="X861MBzPfUZEkW0-GhYv-458" value="&lt;p style=&quot;margin: 0px; padding: 0px; user-select: text; -webkit-user-drag: none; -webkit-tap-highlight-color: transparent; text-align: left;&quot;&gt;&lt;span style=&quot;margin: 0px; padding: 0px; user-select: text; -webkit-user-drag: none; -webkit-tap-highlight-color: transparent; font-family: Calibri; font-size: 12pt;&quot; data-colorformula=&quot;0&quot; data-colorparams=&quot;#000000_null_null&quot;&gt;Usuarios(idUsuarios(PK)(FK),Email,PWD)&lt;/span&gt;&lt;/p&gt;&lt;p style=&quot;margin: 0px; padding: 0px; user-select: text; -webkit-user-drag: none; -webkit-tap-highlight-color: transparent; text-align: left;&quot;&gt;&lt;br style=&quot;margin: 0px; padding: 0px; user-select: text; -webkit-user-drag: none; -webkit-tap-highlight-color: transparent; color: rgb(70, 114, 196); font-family: Calibri; font-size: 16px; text-wrap: wrap; background-color: rgb(255, 255, 255);&quot;&gt;&lt;/p&gt;" style="text;html=1;align=center;verticalAlign=middle;resizable=0;points=[];autosize=1;strokeColor=none;fillColor=none;" vertex="1" parent="1">
          <mxGeometry x="2460" y="600" width="280" height="30" as="geometry" />
        </mxCell>
        <mxCell id="X861MBzPfUZEkW0-GhYv-459" value="&lt;p style=&quot;margin: 0px; padding: 0px; user-select: text; -webkit-user-drag: none; -webkit-tap-highlight-color: transparent; color: rgb(70, 114, 196); font-family: Calibri; font-size: 16px; text-wrap: wrap; background-color: rgb(255, 255, 255); text-align: left;&quot;&gt;&lt;span style=&quot;margin: 0px; padding: 0px; user-select: text; -webkit-user-drag: none; -webkit-tap-highlight-color: transparent; font-size: 12pt; color: rgb(0, 0, 0);&quot; data-colorformula=&quot;0&quot; data-colorparams=&quot;#000000_null_null&quot;&gt;Profesores(ID_Prof(PK),Nombre,Apellidos,DNI(UK),Email(UK),Estado,Departamento(FK),Perfil)&amp;nbsp;&lt;/span&gt;&lt;/p&gt;&lt;div&gt;&lt;span style=&quot;margin: 0px; padding: 0px; user-select: text; -webkit-user-drag: none; -webkit-tap-highlight-color: transparent; font-size: 12pt; color: rgb(0, 0, 0);&quot; data-colorformula=&quot;0&quot; data-colorparams=&quot;#000000_null_null&quot;&gt;&lt;br&gt;&lt;/span&gt;&lt;/div&gt;" style="text;html=1;align=center;verticalAlign=middle;resizable=0;points=[];autosize=1;strokeColor=none;fillColor=none;" vertex="1" parent="1">
          <mxGeometry x="2450" y="720" width="640" height="50" as="geometry" />
        </mxCell>
        <mxCell id="X861MBzPfUZEkW0-GhYv-460" value="&lt;p style=&quot;margin: 0px; padding: 0px; user-select: text; -webkit-user-drag: none; -webkit-tap-highlight-color: transparent; text-align: left;&quot;&gt;&lt;span style=&quot;margin: 0px; padding: 0px; user-select: text; -webkit-user-drag: none; -webkit-tap-highlight-color: transparent; font-family: Calibri; font-size: 12pt;&quot; data-colorformula=&quot;0&quot; data-colorparams=&quot;#000000_null_null&quot;&gt;&amp;nbsp; &amp;nbsp; &amp;nbsp; &amp;nbsp; &amp;nbsp; &amp;nbsp; &amp;nbsp; &amp;nbsp; &amp;nbsp; &amp;nbsp; &amp;nbsp; &amp;nbsp; &amp;nbsp; &amp;nbsp; &amp;nbsp; &amp;nbsp; &amp;nbsp; &amp;nbsp; &amp;nbsp; &amp;nbsp; &amp;nbsp; &amp;nbsp; &amp;nbsp; &amp;nbsp; &amp;nbsp; &amp;nbsp; &amp;nbsp; &amp;nbsp; &amp;nbsp; &amp;nbsp; &amp;nbsp; &amp;nbsp; &amp;nbsp; &amp;nbsp; &amp;nbsp; &amp;nbsp; &amp;nbsp; &amp;nbsp; &amp;nbsp; &amp;nbsp; &amp;nbsp; &amp;nbsp;ProfesoresParticipantes((Actividad(FK),IdProfesor(FK))(PK),Rol)&amp;nbsp;&amp;nbsp;&amp;nbsp;Departamentos(idDepartamentos(PK),COD_De(UK),Nombre)&lt;/span&gt;&lt;/p&gt;&lt;p style=&quot;margin: 0px; padding: 0px; user-select: text; -webkit-user-drag: none; -webkit-tap-highlight-color: transparent; text-align: left;&quot;&gt;&lt;br style=&quot;margin: 0px; padding: 0px; user-select: text; -webkit-user-drag: none; -webkit-tap-highlight-color: transparent; color: rgb(70, 114, 196); font-family: Calibri; font-size: 16px; text-wrap: wrap; background-color: rgb(255, 255, 255);&quot;&gt;&lt;/p&gt;" style="text;html=1;align=center;verticalAlign=middle;resizable=0;points=[];autosize=1;strokeColor=none;fillColor=none;" vertex="1" parent="1">
          <mxGeometry x="2470" y="830" width="1130" height="30" as="geometry" />
        </mxCell>
        <mxCell id="X861MBzPfUZEkW0-GhYv-461" value="&lt;span data-colorformula=&quot;0&quot; data-colorparams=&quot;#000000_null_null&quot; style=&quot;font-family: Calibri; font-size: 12pt;&quot;&gt;&amp;nbsp;Cursos(COD_CUR(PK),descripCur,etapa,estadoCur,AlumnosTotales)&amp;nbsp; &amp;nbsp; &amp;nbsp; &amp;nbsp; &amp;nbsp; &amp;nbsp; Grupos(COD_GRUP(PK),COD_CUR(FK),alumnos,estadoGrup&lt;/span&gt;" style="text;html=1;align=center;verticalAlign=middle;resizable=0;points=[];autosize=1;strokeColor=none;fillColor=none;" vertex="1" parent="1">
          <mxGeometry x="2950" y="1060" width="890" height="30" as="geometry" />
        </mxCell>
        <mxCell id="X861MBzPfUZEkW0-GhYv-462" value="&lt;p style=&quot;margin: 0px; padding: 0px; user-select: text; -webkit-user-drag: none; -webkit-tap-highlight-color: transparent; text-align: left;&quot;&gt;&lt;span style=&quot;margin: 0px; padding: 0px; user-select: text; -webkit-user-drag: none; -webkit-tap-highlight-color: transparent; font-family: Calibri; font-size: 12pt;&quot; data-colorformula=&quot;0&quot; data-colorparams=&quot;#000000_null_null&quot;&gt;Solicitud(idSolicitud(PK),Solicitante(FK),nombreAct,tipoActividad,Departamento(FK),Prevista,MaxAlumnos,Transporte,FechaInicial,Fecha, Final,HoraInicial,HoraFinal,Alojamiento,comentarioAdicional,Estado,CosultaEstado)&lt;/span&gt;&lt;/p&gt;&lt;p style=&quot;margin: 0px; padding: 0px; user-select: text; -webkit-user-drag: none; -webkit-tap-highlight-color: transparent; text-align: left;&quot;&gt;&lt;br style=&quot;margin: 0px; padding: 0px; user-select: text; -webkit-user-drag: none; -webkit-tap-highlight-color: transparent; color: rgb(70, 114, 196); font-family: Calibri; font-size: 16px; text-wrap: wrap; background-color: rgb(255, 255, 255);&quot;&gt;&lt;/p&gt;" style="text;html=1;align=center;verticalAlign=middle;resizable=0;points=[];autosize=1;strokeColor=none;fillColor=none;" vertex="1" parent="1">
          <mxGeometry x="2450" y="930" width="1450" height="50" as="geometry" />
        </mxCell>
        <mxCell id="X861MBzPfUZEkW0-GhYv-463" value="&lt;p style=&quot;margin: 0px; padding: 0px; user-select: text; -webkit-user-drag: none; -webkit-tap-highlight-color: transparent;&quot;&gt;&lt;span style=&quot;margin: 0px; padding: 0px; user-select: text; -webkit-user-drag: none; -webkit-tap-highlight-color: transparent; font-family: Calibri; font-size: 12pt;&quot; data-colorformula=&quot;0&quot; data-colorparams=&quot;#000000_null_null&quot;&gt;&amp;nbsp; &amp;nbsp; &amp;nbsp; &amp;nbsp; &amp;nbsp;transportesAct((IdActividad(FK),tipoTransporte(FK))(PK))&amp;nbsp;&amp;nbsp;&lt;/span&gt;&lt;/p&gt;&lt;p style=&quot;margin: 0px; padding: 0px; user-select: text; -webkit-user-drag: none; -webkit-tap-highlight-color: transparent;&quot;&gt;&lt;br style=&quot;margin: 0px; padding: 0px; user-select: text; -webkit-user-drag: none; -webkit-tap-highlight-color: transparent; color: rgb(70, 114, 196); font-family: Calibri; font-size: 16px; text-wrap: wrap; background-color: rgb(255, 255, 255);&quot;&gt;&lt;/p&gt;" style="text;html=1;align=center;verticalAlign=middle;resizable=0;points=[];autosize=1;strokeColor=none;fillColor=none;" vertex="1" parent="1">
          <mxGeometry x="2965" y="1200" width="420" height="30" as="geometry" />
        </mxCell>
        <mxCell id="X861MBzPfUZEkW0-GhYv-464" value="&lt;span data-colorformula=&quot;0&quot; data-colorparams=&quot;#000000_null_null&quot; style=&quot;font-family: Calibri; font-size: 12pt;&quot;&gt;CursosAct((IdAct(FK),CodCur(FK))(PK))&amp;nbsp; &amp;nbsp; &amp;nbsp; &amp;nbsp; &amp;nbsp; &amp;nbsp; &amp;nbsp; &amp;nbsp; &amp;nbsp; &amp;nbsp; &amp;nbsp; &amp;nbsp; &amp;nbsp; &amp;nbsp; &amp;nbsp; &amp;nbsp; &amp;nbsp; &amp;nbsp; &amp;nbsp; &amp;nbsp; &amp;nbsp; &amp;nbsp; &amp;nbsp; &amp;nbsp; &amp;nbsp; &amp;nbsp; &amp;nbsp; &amp;nbsp; &amp;nbsp; &amp;nbsp; &amp;nbsp;GruposAct((idAct(FK),CodGrupo(FK))(PK))&lt;/span&gt;" style="text;html=1;align=center;verticalAlign=middle;resizable=0;points=[];autosize=1;strokeColor=none;fillColor=none;" vertex="1" parent="1">
          <mxGeometry x="2795" y="1025" width="750" height="20" as="geometry" />
        </mxCell>
        <mxCell id="X861MBzPfUZEkW0-GhYv-465" value="&lt;p style=&quot;margin: 0px; padding: 0px; user-select: text; -webkit-user-drag: none; -webkit-tap-highlight-color: transparent; text-align: left;&quot;&gt;&lt;span style=&quot;margin: 0px; padding: 0px; user-select: text; -webkit-user-drag: none; -webkit-tap-highlight-color: transparent; font-family: Calibri; font-size: 12pt;&quot; data-colorformula=&quot;0&quot; data-colorparams=&quot;#000000_null_null&quot;&gt;Fotos(idFotos(PK),url,descripcion,id_actividad(FK))&lt;/span&gt;&lt;/p&gt;&lt;p style=&quot;margin: 0px; padding: 0px; user-select: text; -webkit-user-drag: none; -webkit-tap-highlight-color: transparent;&quot;&gt;&lt;br style=&quot;margin: 0px; padding: 0px; user-select: text; -webkit-user-drag: none; -webkit-tap-highlight-color: transparent; color: rgb(70, 114, 196); font-family: Calibri; font-size: 16px; text-wrap: wrap; background-color: rgb(255, 255, 255);&quot;&gt;&lt;/p&gt;" style="text;html=1;align=center;verticalAlign=middle;resizable=0;points=[];autosize=1;strokeColor=none;fillColor=none;" vertex="1" parent="1">
          <mxGeometry x="2450" y="1340" width="350" height="50" as="geometry" />
        </mxCell>
        <mxCell id="X861MBzPfUZEkW0-GhYv-466" value="&lt;p style=&quot;margin: 0px; padding: 0px; user-select: text; -webkit-user-drag: none; -webkit-tap-highlight-color: transparent; text-align: left;&quot;&gt;&lt;span style=&quot;margin: 0px; padding: 0px; user-select: text; -webkit-user-drag: none; -webkit-tap-highlight-color: transparent; font-family: Calibri; font-size: 12pt;&quot; data-colorformula=&quot;0&quot; data-colorparams=&quot;#000000_null_null&quot;&gt;&amp;nbsp; &amp;nbsp; &amp;nbsp; &amp;nbsp; &amp;nbsp; &amp;nbsp; &amp;nbsp; &amp;nbsp; &amp;nbsp; &amp;nbsp; &amp;nbsp; &amp;nbsp; &amp;nbsp; &amp;nbsp; &amp;nbsp; &amp;nbsp; &amp;nbsp; &amp;nbsp; &amp;nbsp; &amp;nbsp; &amp;nbsp; &amp;nbsp; &amp;nbsp; &amp;nbsp; &amp;nbsp; &amp;nbsp; &amp;nbsp; &amp;nbsp; &amp;nbsp; &amp;nbsp; &amp;nbsp; &amp;nbsp; &amp;nbsp; &amp;nbsp; &amp;nbsp; &amp;nbsp; &amp;nbsp; &amp;nbsp; &amp;nbsp; &amp;nbsp; &amp;nbsp; &amp;nbsp; &amp;nbsp; &amp;nbsp; &amp;nbsp; &amp;nbsp; &amp;nbsp; &amp;nbsp; &amp;nbsp; &amp;nbsp; &amp;nbsp; &amp;nbsp; &amp;nbsp; &amp;nbsp; transportes(idTransportes(PK),TipoTransporte)&amp;nbsp; &amp;nbsp;&lt;/span&gt;&lt;/p&gt;&lt;p style=&quot;margin: 0px; padding: 0px; user-select: text; -webkit-user-drag: none; -webkit-tap-highlight-color: transparent;&quot;&gt;&lt;br style=&quot;margin: 0px; padding: 0px; user-select: text; -webkit-user-drag: none; -webkit-tap-highlight-color: transparent; color: rgb(70, 114, 196); font-family: Calibri; font-size: 16px; text-wrap: wrap; background-color: rgb(255, 255, 255);&quot;&gt;&lt;/p&gt;" style="text;html=1;align=center;verticalAlign=middle;resizable=0;points=[];autosize=1;strokeColor=none;fillColor=none;" vertex="1" parent="1">
          <mxGeometry x="2645" y="1300" width="720" height="30" as="geometry" />
        </mxCell>
        <mxCell id="X861MBzPfUZEkW0-GhYv-467" value="&lt;p style=&quot;margin: 0px; padding: 0px; user-select: text; -webkit-user-drag: none; -webkit-tap-highlight-color: transparent; text-align: left; font-size: 16px;&quot;&gt;&lt;/p&gt;&lt;span style=&quot;font-family: Calibri; font-size: 16px; text-align: left;&quot;&gt;ActividadProgramada(IdSolicitud(FK)(PK),Solicitante,nombreAct,tipoActividad,Departamento,Prevista,MaxAlumnos,Transporte,FechaInicial,Fecha, Final,HoraInicial,HoraFinal,Alojamiento,comentarioAdicional,&lt;/span&gt;&lt;span style=&quot;font-family: Calibri; text-align: left; background-color: initial;&quot;&gt;TransporteContratado,AlojamientoContratado,AlumnosParticipantes,comentario)&lt;br&gt;&lt;/span&gt;" style="text;html=1;align=center;verticalAlign=middle;resizable=0;points=[];autosize=1;strokeColor=none;fillColor=none;imageWidth=52;imageHeight=50;fontSize=16;" vertex="1" parent="1">
          <mxGeometry x="2190" y="1120" width="1890" height="20" as="geometry" />
        </mxCell>
        <mxCell id="X861MBzPfUZEkW0-GhYv-468" value="" style="endArrow=classic;html=1;rounded=0;entryX=0.201;entryY=0.025;entryDx=0;entryDy=0;entryPerimeter=0;exitX=0.399;exitY=1.08;exitDx=0;exitDy=0;exitPerimeter=0;" edge="1" parent="1" source="X861MBzPfUZEkW0-GhYv-458" target="X861MBzPfUZEkW0-GhYv-459">
          <mxGeometry width="50" height="50" relative="1" as="geometry">
            <mxPoint x="2600" y="715" as="sourcePoint" />
            <mxPoint x="2590" y="615" as="targetPoint" />
          </mxGeometry>
        </mxCell>
        <mxCell id="X861MBzPfUZEkW0-GhYv-469" value="1" style="text;html=1;align=center;verticalAlign=middle;resizable=0;points=[];autosize=1;strokeColor=none;fillColor=none;" vertex="1" parent="1">
          <mxGeometry x="2520" y="690" width="30" height="30" as="geometry" />
        </mxCell>
        <mxCell id="X861MBzPfUZEkW0-GhYv-470" value="1" style="text;html=1;align=center;verticalAlign=middle;resizable=0;points=[];autosize=1;strokeColor=none;fillColor=none;" vertex="1" parent="1">
          <mxGeometry x="2520" y="628" width="30" height="30" as="geometry" />
        </mxCell>
        <mxCell id="X861MBzPfUZEkW0-GhYv-471" value="" style="endArrow=classic;html=1;rounded=0;entryX=0.229;entryY=1.025;entryDx=0;entryDy=0;entryPerimeter=0;exitX=0.538;exitY=-0.011;exitDx=0;exitDy=0;exitPerimeter=0;" edge="1" parent="1" source="X861MBzPfUZEkW0-GhYv-460" target="X861MBzPfUZEkW0-GhYv-459">
          <mxGeometry width="50" height="50" relative="1" as="geometry">
            <mxPoint x="2640" y="810" as="sourcePoint" />
            <mxPoint x="2650" y="887" as="targetPoint" />
            <Array as="points">
              <mxPoint x="3080" y="790" />
              <mxPoint x="2600" y="800" />
            </Array>
          </mxGeometry>
        </mxCell>
        <mxCell id="X861MBzPfUZEkW0-GhYv-472" value="1" style="text;html=1;align=center;verticalAlign=middle;resizable=0;points=[];autosize=1;strokeColor=none;fillColor=none;" vertex="1" parent="1">
          <mxGeometry x="2570" y="770" width="30" height="30" as="geometry" />
        </mxCell>
        <mxCell id="X861MBzPfUZEkW0-GhYv-473" value="N" style="text;html=1;align=center;verticalAlign=middle;resizable=0;points=[];autosize=1;strokeColor=none;fillColor=none;" vertex="1" parent="1">
          <mxGeometry x="3080" y="800" width="30" height="30" as="geometry" />
        </mxCell>
        <mxCell id="X861MBzPfUZEkW0-GhYv-474" value="" style="endArrow=classic;html=1;rounded=0;exitX=0.757;exitY=1.044;exitDx=0;exitDy=0;exitPerimeter=0;entryX=0.785;entryY=1.092;entryDx=0;entryDy=0;entryPerimeter=0;" edge="1" parent="1" target="X861MBzPfUZEkW0-GhYv-460">
          <mxGeometry width="50" height="50" relative="1" as="geometry">
            <mxPoint x="2990" y="730" as="sourcePoint" />
            <mxPoint x="3200" y="853" as="targetPoint" />
            <Array as="points">
              <mxPoint x="2990" y="680" />
              <mxPoint x="3700" y="680" />
              <mxPoint x="3700" y="880" />
              <mxPoint x="3360" y="880" />
            </Array>
          </mxGeometry>
        </mxCell>
        <mxCell id="X861MBzPfUZEkW0-GhYv-475" value="1" style="text;html=1;align=center;verticalAlign=middle;resizable=0;points=[];autosize=1;strokeColor=none;fillColor=none;" vertex="1" parent="1">
          <mxGeometry x="3370" y="890" width="30" height="30" as="geometry" />
        </mxCell>
        <mxCell id="X861MBzPfUZEkW0-GhYv-476" value="N" style="text;html=1;align=center;verticalAlign=middle;resizable=0;points=[];autosize=1;strokeColor=none;fillColor=none;" vertex="1" parent="1">
          <mxGeometry x="2950" y="700" width="30" height="30" as="geometry" />
        </mxCell>
        <mxCell id="X861MBzPfUZEkW0-GhYv-477" value="" style="endArrow=classic;html=1;rounded=0;entryX=0.077;entryY=-0.037;entryDx=0;entryDy=0;entryPerimeter=0;exitX=0.446;exitY=1.084;exitDx=0;exitDy=0;exitPerimeter=0;" edge="1" parent="1" source="X861MBzPfUZEkW0-GhYv-460" target="X861MBzPfUZEkW0-GhYv-462">
          <mxGeometry width="50" height="50" relative="1" as="geometry">
            <mxPoint x="2960" y="880" as="sourcePoint" />
            <mxPoint x="2970" y="957" as="targetPoint" />
            <Array as="points">
              <mxPoint x="2550" y="880" />
            </Array>
          </mxGeometry>
        </mxCell>
        <mxCell id="X861MBzPfUZEkW0-GhYv-478" value="N" style="text;html=1;align=center;verticalAlign=middle;resizable=0;points=[];autosize=1;strokeColor=none;fillColor=none;" vertex="1" parent="1">
          <mxGeometry x="2980" y="860" width="30" height="30" as="geometry" />
        </mxCell>
        <mxCell id="X861MBzPfUZEkW0-GhYv-479" value="1" style="text;html=1;align=center;verticalAlign=middle;resizable=0;points=[];autosize=1;strokeColor=none;fillColor=none;" vertex="1" parent="1">
          <mxGeometry x="2570" y="900" width="30" height="30" as="geometry" />
        </mxCell>
        <mxCell id="X861MBzPfUZEkW0-GhYv-480" value="" style="endArrow=classic;html=1;rounded=0;exitX=0.13;exitY=0.003;exitDx=0;exitDy=0;exitPerimeter=0;entryX=0.187;entryY=1.038;entryDx=0;entryDy=0;entryPerimeter=0;verticalAlign=middle;" edge="1" parent="1" source="X861MBzPfUZEkW0-GhYv-462" target="X861MBzPfUZEkW0-GhYv-459">
          <mxGeometry width="50" height="50" relative="1" as="geometry">
            <mxPoint x="2440" y="1030" as="sourcePoint" />
            <mxPoint x="2440" y="826.5" as="targetPoint" />
            <Array as="points">
              <mxPoint x="2640" y="840" />
              <mxPoint x="2570" y="840" />
              <mxPoint x="2570" y="800" />
            </Array>
          </mxGeometry>
        </mxCell>
        <mxCell id="X861MBzPfUZEkW0-GhYv-481" value="1" style="text;html=1;align=center;verticalAlign=middle;resizable=0;points=[];autosize=1;strokeColor=none;fillColor=none;" vertex="1" parent="1">
          <mxGeometry x="2530" y="760" width="30" height="30" as="geometry" />
        </mxCell>
        <mxCell id="X861MBzPfUZEkW0-GhYv-482" value="N" style="text;html=1;align=center;verticalAlign=middle;resizable=0;points=[];autosize=1;strokeColor=none;fillColor=none;" vertex="1" parent="1">
          <mxGeometry x="2650" y="910" width="30" height="30" as="geometry" />
        </mxCell>
        <mxCell id="X861MBzPfUZEkW0-GhYv-483" value="" style="endArrow=classic;html=1;rounded=0;exitX=0.324;exitY=-0.055;exitDx=0;exitDy=0;exitPerimeter=0;entryX=0.745;entryY=1.008;entryDx=0;entryDy=0;entryPerimeter=0;" edge="1" parent="1" source="X861MBzPfUZEkW0-GhYv-462" target="X861MBzPfUZEkW0-GhYv-460">
          <mxGeometry width="50" height="50" relative="1" as="geometry">
            <mxPoint x="3220" y="977" as="sourcePoint" />
            <mxPoint x="3210" y="900" as="targetPoint" />
            <Array as="points">
              <mxPoint x="2920" y="900" />
              <mxPoint x="3276" y="900" />
            </Array>
          </mxGeometry>
        </mxCell>
        <mxCell id="X861MBzPfUZEkW0-GhYv-484" value="1" style="text;html=1;align=center;verticalAlign=middle;resizable=0;points=[];autosize=1;strokeColor=none;fillColor=none;" vertex="1" parent="1">
          <mxGeometry x="3235" y="860" width="30" height="30" as="geometry" />
        </mxCell>
        <mxCell id="X861MBzPfUZEkW0-GhYv-485" value="N" style="text;html=1;align=center;verticalAlign=middle;resizable=0;points=[];autosize=1;strokeColor=none;fillColor=none;" vertex="1" parent="1">
          <mxGeometry x="2930" y="910" width="30" height="30" as="geometry" />
        </mxCell>
        <mxCell id="X861MBzPfUZEkW0-GhYv-486" value="" style="endArrow=classic;html=1;rounded=0;exitX=0.13;exitY=0.012;exitDx=0;exitDy=0;exitPerimeter=0;entryX=0.084;entryY=1.002;entryDx=0;entryDy=0;entryPerimeter=0;" edge="1" parent="1" source="X861MBzPfUZEkW0-GhYv-464" target="X861MBzPfUZEkW0-GhYv-462">
          <mxGeometry width="50" height="50" relative="1" as="geometry">
            <mxPoint x="2710" y="1090" as="sourcePoint" />
            <mxPoint x="2590" y="990" as="targetPoint" />
            <Array as="points">
              <mxPoint x="2896" y="1000" />
              <mxPoint x="2570" y="1000" />
            </Array>
          </mxGeometry>
        </mxCell>
        <mxCell id="X861MBzPfUZEkW0-GhYv-487" value="1" style="text;html=1;align=center;verticalAlign=middle;resizable=0;points=[];autosize=1;strokeColor=none;fillColor=none;" vertex="1" parent="1">
          <mxGeometry x="2600" y="970" width="30" height="30" as="geometry" />
        </mxCell>
        <mxCell id="X861MBzPfUZEkW0-GhYv-488" value="N" style="text;html=1;align=center;verticalAlign=middle;resizable=0;points=[];autosize=1;strokeColor=none;fillColor=none;" vertex="1" parent="1">
          <mxGeometry x="2870" y="1010" width="30" height="30" as="geometry" />
        </mxCell>
        <mxCell id="X861MBzPfUZEkW0-GhYv-489" value="" style="endArrow=classic;html=1;rounded=0;exitX=0.784;exitY=0;exitDx=0;exitDy=0;exitPerimeter=0;entryX=0.322;entryY=0.041;entryDx=0;entryDy=0;entryPerimeter=0;" edge="1" parent="1" source="X861MBzPfUZEkW0-GhYv-464" target="X861MBzPfUZEkW0-GhYv-487">
          <mxGeometry width="50" height="50" relative="1" as="geometry">
            <mxPoint x="2510" y="1043" as="sourcePoint" />
            <mxPoint x="2670" y="980" as="targetPoint" />
            <Array as="points">
              <mxPoint x="3380" y="990" />
              <mxPoint x="3030" y="990" />
              <mxPoint x="2670" y="990" />
            </Array>
          </mxGeometry>
        </mxCell>
        <mxCell id="X861MBzPfUZEkW0-GhYv-490" value="1" style="text;html=1;align=center;verticalAlign=middle;resizable=0;points=[];autosize=1;strokeColor=none;fillColor=none;" vertex="1" parent="1">
          <mxGeometry x="2540" y="980" width="30" height="30" as="geometry" />
        </mxCell>
        <mxCell id="X861MBzPfUZEkW0-GhYv-491" value="N" style="text;html=1;align=center;verticalAlign=middle;resizable=0;points=[];autosize=1;strokeColor=none;fillColor=none;" vertex="1" parent="1">
          <mxGeometry x="3395" y="1000" width="30" height="30" as="geometry" />
        </mxCell>
        <mxCell id="X861MBzPfUZEkW0-GhYv-492" value="" style="endArrow=classic;html=1;rounded=0;entryX=0.162;entryY=-0.106;entryDx=0;entryDy=0;entryPerimeter=0;exitX=0.276;exitY=0.967;exitDx=0;exitDy=0;exitPerimeter=0;" edge="1" parent="1" source="X861MBzPfUZEkW0-GhYv-464" target="X861MBzPfUZEkW0-GhYv-461">
          <mxGeometry width="50" height="50" relative="1" as="geometry">
            <mxPoint x="3170" y="1050" as="sourcePoint" />
            <mxPoint x="3170" y="1107" as="targetPoint" />
            <Array as="points">
              <mxPoint x="3094" y="1040" />
            </Array>
          </mxGeometry>
        </mxCell>
        <mxCell id="X861MBzPfUZEkW0-GhYv-493" value="" style="endArrow=classic;html=1;rounded=0;entryX=0.686;entryY=0.039;entryDx=0;entryDy=0;entryPerimeter=0;exitX=0.956;exitY=1.004;exitDx=0;exitDy=0;exitPerimeter=0;" edge="1" parent="1" source="X861MBzPfUZEkW0-GhYv-464" target="X861MBzPfUZEkW0-GhYv-461">
          <mxGeometry width="50" height="50" relative="1" as="geometry">
            <mxPoint x="3490" y="1050" as="sourcePoint" />
            <mxPoint x="3430" y="1078" as="targetPoint" />
          </mxGeometry>
        </mxCell>
        <mxCell id="X861MBzPfUZEkW0-GhYv-494" value="1" style="text;html=1;align=center;verticalAlign=middle;resizable=0;points=[];autosize=1;strokeColor=none;fillColor=none;" vertex="1" parent="1">
          <mxGeometry x="3090" y="1040" width="30" height="30" as="geometry" />
        </mxCell>
        <mxCell id="X861MBzPfUZEkW0-GhYv-495" value="1" style="text;html=1;align=center;verticalAlign=middle;resizable=0;points=[];autosize=1;strokeColor=none;fillColor=none;" vertex="1" parent="1">
          <mxGeometry x="3575" y="1040" width="30" height="30" as="geometry" />
        </mxCell>
        <mxCell id="X861MBzPfUZEkW0-GhYv-496" value="N" style="text;html=1;align=center;verticalAlign=middle;resizable=0;points=[];autosize=1;strokeColor=none;fillColor=none;" vertex="1" parent="1">
          <mxGeometry x="3410" y="1040" width="30" height="30" as="geometry" />
        </mxCell>
        <mxCell id="X861MBzPfUZEkW0-GhYv-497" value="N" style="text;html=1;align=center;verticalAlign=middle;resizable=0;points=[];autosize=1;strokeColor=none;fillColor=none;" vertex="1" parent="1">
          <mxGeometry x="2970" y="1040" width="30" height="30" as="geometry" />
        </mxCell>
        <mxCell id="X861MBzPfUZEkW0-GhYv-498" value="" style="endArrow=classic;html=1;rounded=0;entryX=0.156;entryY=1.141;entryDx=0;entryDy=0;entryPerimeter=0;exitX=0.763;exitY=1.083;exitDx=0;exitDy=0;exitPerimeter=0;" edge="1" parent="1" source="X861MBzPfUZEkW0-GhYv-461" target="X861MBzPfUZEkW0-GhYv-461">
          <mxGeometry width="50" height="50" relative="1" as="geometry">
            <mxPoint x="3625" y="1120" as="sourcePoint" />
            <mxPoint x="3565" y="1148" as="targetPoint" />
            <Array as="points">
              <mxPoint x="3630" y="1110" />
              <mxPoint x="3110" y="1100" />
            </Array>
          </mxGeometry>
        </mxCell>
        <mxCell id="X861MBzPfUZEkW0-GhYv-499" value="N" style="text;html=1;align=center;verticalAlign=middle;resizable=0;points=[];autosize=1;strokeColor=none;fillColor=none;" vertex="1" parent="1">
          <mxGeometry x="3640" y="1090" width="30" height="30" as="geometry" />
        </mxCell>
        <mxCell id="X861MBzPfUZEkW0-GhYv-500" value="1" style="text;html=1;align=center;verticalAlign=middle;resizable=0;points=[];autosize=1;strokeColor=none;fillColor=none;" vertex="1" parent="1">
          <mxGeometry x="3060" y="1090" width="30" height="30" as="geometry" />
        </mxCell>
        <mxCell id="X861MBzPfUZEkW0-GhYv-501" value="" style="endArrow=classic;html=1;rounded=0;exitX=0.108;exitY=-0.081;exitDx=0;exitDy=0;exitPerimeter=0;" edge="1" parent="1" source="X861MBzPfUZEkW0-GhYv-467">
          <mxGeometry width="50" height="50" relative="1" as="geometry">
            <mxPoint x="2445" y="1060" as="sourcePoint" />
            <mxPoint x="2520" y="980" as="targetPoint" />
            <Array as="points">
              <mxPoint x="2375" y="990" />
              <mxPoint x="2460" y="990" />
              <mxPoint x="2500" y="990" />
            </Array>
          </mxGeometry>
        </mxCell>
        <mxCell id="X861MBzPfUZEkW0-GhYv-502" value="1" style="text;html=1;align=center;verticalAlign=middle;resizable=0;points=[];autosize=1;strokeColor=none;fillColor=none;" vertex="1" parent="1">
          <mxGeometry x="2460" y="970" width="30" height="30" as="geometry" />
        </mxCell>
        <mxCell id="X861MBzPfUZEkW0-GhYv-503" value="1" style="text;html=1;align=center;verticalAlign=middle;resizable=0;points=[];autosize=1;strokeColor=none;fillColor=none;" vertex="1" parent="1">
          <mxGeometry x="2330" y="1080" width="30" height="30" as="geometry" />
        </mxCell>
        <mxCell id="X861MBzPfUZEkW0-GhYv-504" value="" style="endArrow=classic;html=1;rounded=0;exitX=0.423;exitY=1.133;exitDx=0;exitDy=0;exitPerimeter=0;" edge="1" parent="1" source="X861MBzPfUZEkW0-GhYv-463">
          <mxGeometry width="50" height="50" relative="1" as="geometry">
            <mxPoint x="2970" y="1180" as="sourcePoint" />
            <mxPoint x="2360" y="1160" as="targetPoint" />
            <Array as="points">
              <mxPoint x="3143" y="1260" />
              <mxPoint x="2350" y="1260" />
              <mxPoint x="2350" y="1190" />
            </Array>
          </mxGeometry>
        </mxCell>
        <mxCell id="X861MBzPfUZEkW0-GhYv-505" value="" style="endArrow=classic;html=1;rounded=0;exitX=0.742;exitY=-0.003;exitDx=0;exitDy=0;exitPerimeter=0;entryX=0.111;entryY=1.014;entryDx=0;entryDy=0;entryPerimeter=0;" edge="1" parent="1" source="X861MBzPfUZEkW0-GhYv-463" target="X861MBzPfUZEkW0-GhYv-467">
          <mxGeometry width="50" height="50" relative="1" as="geometry">
            <mxPoint x="3750" y="1180" as="sourcePoint" />
            <mxPoint x="2740" y="1180" as="targetPoint" />
            <Array as="points">
              <mxPoint x="3274" y="1180" />
              <mxPoint x="2990" y="1180" />
              <mxPoint x="2690" y="1180" />
              <mxPoint x="2380" y="1180" />
            </Array>
          </mxGeometry>
        </mxCell>
        <mxCell id="X861MBzPfUZEkW0-GhYv-506" value="" style="endArrow=classic;html=1;rounded=0;exitX=0.892;exitY=1.006;exitDx=0;exitDy=0;exitPerimeter=0;" edge="1" parent="1" source="X861MBzPfUZEkW0-GhYv-463">
          <mxGeometry width="50" height="50" relative="1" as="geometry">
            <mxPoint x="3540" y="1271.5" as="sourcePoint" />
            <mxPoint x="3190" y="1290" as="targetPoint" />
            <Array as="points" />
          </mxGeometry>
        </mxCell>
        <mxCell id="X861MBzPfUZEkW0-GhYv-507" value="1" style="text;html=1;align=center;verticalAlign=middle;resizable=0;points=[];autosize=1;strokeColor=none;fillColor=none;" vertex="1" parent="1">
          <mxGeometry x="2320" y="1170" width="30" height="30" as="geometry" />
        </mxCell>
        <mxCell id="X861MBzPfUZEkW0-GhYv-508" value="1" style="text;html=1;align=center;verticalAlign=middle;resizable=0;points=[];autosize=1;strokeColor=none;fillColor=none;" vertex="1" parent="1">
          <mxGeometry x="3142.5" y="1220" width="30" height="30" as="geometry" />
        </mxCell>
        <mxCell id="X861MBzPfUZEkW0-GhYv-509" value="N" style="text;html=1;align=center;verticalAlign=middle;resizable=0;points=[];autosize=1;strokeColor=none;fillColor=none;" vertex="1" parent="1">
          <mxGeometry x="3280" y="1170" width="30" height="30" as="geometry" />
        </mxCell>
        <mxCell id="X861MBzPfUZEkW0-GhYv-510" value="N" style="text;html=1;align=center;verticalAlign=middle;resizable=0;points=[];autosize=1;strokeColor=none;fillColor=none;" vertex="1" parent="1">
          <mxGeometry x="3355" y="1220" width="30" height="30" as="geometry" />
        </mxCell>
        <mxCell id="X861MBzPfUZEkW0-GhYv-511" value="1" style="text;html=1;align=center;verticalAlign=middle;resizable=0;points=[];autosize=1;strokeColor=none;fillColor=none;" vertex="1" parent="1">
          <mxGeometry x="3303.3199999999997" y="1270" width="30" height="30" as="geometry" />
        </mxCell>
        <mxCell id="X861MBzPfUZEkW0-GhYv-512" value="" style="endArrow=classic;html=1;rounded=0;entryX=0.084;entryY=1.146;entryDx=0;entryDy=0;entryPerimeter=0;exitX=0.76;exitY=0.005;exitDx=0;exitDy=0;exitPerimeter=0;" edge="1" parent="1" source="X861MBzPfUZEkW0-GhYv-465" target="X861MBzPfUZEkW0-GhYv-467">
          <mxGeometry width="50" height="50" relative="1" as="geometry">
            <mxPoint x="2470" y="1223" as="sourcePoint" />
            <mxPoint x="2480" y="1300" as="targetPoint" />
            <Array as="points">
              <mxPoint x="2716" y="1310" />
              <mxPoint x="2620" y="1310" />
              <mxPoint x="2330" y="1310" />
            </Array>
          </mxGeometry>
        </mxCell>
        <mxCell id="X861MBzPfUZEkW0-GhYv-513" value="1" style="text;html=1;align=center;verticalAlign=middle;resizable=0;points=[];autosize=1;strokeColor=none;fillColor=none;" vertex="1" parent="1">
          <mxGeometry x="2290" y="1160" width="30" height="30" as="geometry" />
        </mxCell>
        <mxCell id="X861MBzPfUZEkW0-GhYv-514" value="N" style="text;html=1;align=center;verticalAlign=middle;resizable=0;points=[];autosize=1;strokeColor=none;fillColor=none;" vertex="1" parent="1">
          <mxGeometry x="2717.5" y="1320" width="30" height="30" as="geometry" />
        </mxCell>
        <mxCell id="X861MBzPfUZEkW0-GhYv-515" value="(1,1)" style="text;html=1;align=center;verticalAlign=middle;resizable=0;points=[];autosize=1;strokeColor=none;fillColor=none;" vertex="1" parent="1">
          <mxGeometry x="3575" y="2090" width="40" height="20" as="geometry" />
        </mxCell>
        <mxCell id="X861MBzPfUZEkW0-GhYv-516" value="(0,N)" style="text;html=1;align=center;verticalAlign=middle;resizable=0;points=[];autosize=1;strokeColor=none;fillColor=none;" vertex="1" parent="1">
          <mxGeometry x="3742.5" y="2100" width="50" height="30" as="geometry" />
        </mxCell>
        <mxCell id="X861MBzPfUZEkW0-GhYv-517" value="1:N" style="text;html=1;align=center;verticalAlign=middle;resizable=0;points=[];autosize=1;strokeColor=none;fillColor=none;" vertex="1" parent="1">
          <mxGeometry x="3690" y="2090" width="30" height="20" as="geometry" />
        </mxCell>
        <mxCell id="X861MBzPfUZEkW0-GhYv-518" value="Comentario" style="text;html=1;strokeColor=none;fillColor=none;align=center;verticalAlign=middle;whiteSpace=wrap;rounded=0;" vertex="1" parent="1">
          <mxGeometry x="3320" y="2045" width="60" height="30" as="geometry" />
        </mxCell>
        <mxCell id="X861MBzPfUZEkW0-GhYv-519" value="FechaFinal" style="text;html=1;align=center;verticalAlign=middle;resizable=0;points=[];autosize=1;strokeColor=none;fillColor=none;" vertex="1" parent="1">
          <mxGeometry x="3585" y="2145" width="70" height="20" as="geometry" />
        </mxCell>
        <mxCell id="X861MBzPfUZEkW0-GhYv-520" style="edgeStyle=none;rounded=0;orthogonalLoop=1;jettySize=auto;html=1;endArrow=oval;endFill=0;entryX=-0.016;entryY=0.367;entryDx=0;entryDy=0;entryPerimeter=0;exitX=1;exitY=0.75;exitDx=0;exitDy=0;" edge="1" parent="1" source="X861MBzPfUZEkW0-GhYv-296" target="X861MBzPfUZEkW0-GhYv-519">
          <mxGeometry relative="1" as="geometry">
            <mxPoint x="3567.3599999999997" y="2195.75" as="targetPoint" />
            <mxPoint x="3639.9985401459853" y="2234.25" as="sourcePoint" />
          </mxGeometry>
        </mxCell>
        <mxCell id="X861MBzPfUZEkW0-GhYv-521" value="FechaInicial" style="text;html=1;align=center;verticalAlign=middle;resizable=0;points=[];autosize=1;strokeColor=none;fillColor=none;" vertex="1" parent="1">
          <mxGeometry x="3590" y="2160" width="80" height="20" as="geometry" />
        </mxCell>
        <mxCell id="X861MBzPfUZEkW0-GhYv-522" style="edgeStyle=none;rounded=0;orthogonalLoop=1;jettySize=auto;html=1;endArrow=oval;endFill=0;entryX=0;entryY=0.756;entryDx=0;entryDy=0;entryPerimeter=0;" edge="1" parent="1" source="X861MBzPfUZEkW0-GhYv-296" target="X861MBzPfUZEkW0-GhYv-523">
          <mxGeometry relative="1" as="geometry">
            <mxPoint x="3590" y="2210" as="targetPoint" />
            <mxPoint x="3580" y="2180" as="sourcePoint" />
          </mxGeometry>
        </mxCell>
        <mxCell id="X861MBzPfUZEkW0-GhYv-523" value="Prevista" style="text;html=1;align=center;verticalAlign=middle;resizable=0;points=[];autosize=1;strokeColor=none;fillColor=none;" vertex="1" parent="1">
          <mxGeometry x="3605" y="2180" width="60" height="20" as="geometry" />
        </mxCell>
        <mxCell id="X861MBzPfUZEkW0-GhYv-524" value="Departamento" style="text;html=1;align=center;verticalAlign=middle;resizable=0;points=[];autosize=1;strokeColor=none;fillColor=none;" vertex="1" parent="1">
          <mxGeometry x="3275" y="2070" width="90" height="20" as="geometry" />
        </mxCell>
        <mxCell id="X861MBzPfUZEkW0-GhYv-525" style="edgeStyle=none;rounded=0;orthogonalLoop=1;jettySize=auto;html=1;endArrow=oval;endFill=0;" edge="1" parent="1">
          <mxGeometry relative="1" as="geometry">
            <mxPoint x="3350" y="2090" as="targetPoint" />
            <mxPoint x="3450" y="2120" as="sourcePoint" />
          </mxGeometry>
        </mxCell>
        <mxCell id="X861MBzPfUZEkW0-GhYv-526" style="edgeStyle=none;rounded=0;orthogonalLoop=1;jettySize=auto;html=1;endArrow=oval;endFill=0;" edge="1" parent="1" target="X861MBzPfUZEkW0-GhYv-521">
          <mxGeometry relative="1" as="geometry">
            <mxPoint x="3593.88" y="2157.34" as="targetPoint" />
            <mxPoint x="3570" y="2170" as="sourcePoint" />
          </mxGeometry>
        </mxCell>
        <mxCell id="X861MBzPfUZEkW0-GhYv-527" style="edgeStyle=none;rounded=0;orthogonalLoop=1;jettySize=auto;html=1;endArrow=oval;endFill=0;exitX=0.75;exitY=1;exitDx=0;exitDy=0;entryX=0;entryY=0.25;entryDx=0;entryDy=0;" edge="1" parent="1" source="X861MBzPfUZEkW0-GhYv-296" target="X861MBzPfUZEkW0-GhYv-528">
          <mxGeometry relative="1" as="geometry">
            <mxPoint x="3590" y="2205" as="targetPoint" />
            <mxPoint x="3571.705370101596" y="2180" as="sourcePoint" />
          </mxGeometry>
        </mxCell>
        <mxCell id="X861MBzPfUZEkW0-GhYv-528" value="HoraInicial" style="text;html=1;strokeColor=none;fillColor=none;align=center;verticalAlign=middle;whiteSpace=wrap;rounded=0;" vertex="1" parent="1">
          <mxGeometry x="3605" y="2200" width="60" height="30" as="geometry" />
        </mxCell>
        <mxCell id="X861MBzPfUZEkW0-GhYv-529" style="edgeStyle=none;rounded=0;orthogonalLoop=1;jettySize=auto;html=1;endArrow=oval;endFill=0;exitX=0.639;exitY=1.039;exitDx=0;exitDy=0;exitPerimeter=0;entryX=0.25;entryY=0;entryDx=0;entryDy=0;" edge="1" parent="1" source="X861MBzPfUZEkW0-GhYv-296" target="X861MBzPfUZEkW0-GhYv-530">
          <mxGeometry relative="1" as="geometry">
            <mxPoint x="3590" y="2220" as="targetPoint" />
            <mxPoint x="3550" y="2180" as="sourcePoint" />
          </mxGeometry>
        </mxCell>
        <mxCell id="X861MBzPfUZEkW0-GhYv-530" value="HoraFinal" style="text;html=1;strokeColor=none;fillColor=none;align=center;verticalAlign=middle;whiteSpace=wrap;rounded=0;" vertex="1" parent="1">
          <mxGeometry x="3580" y="2225" width="60" height="30" as="geometry" />
        </mxCell>
        <mxCell id="X861MBzPfUZEkW0-GhYv-531" style="edgeStyle=none;rounded=0;orthogonalLoop=1;jettySize=auto;html=1;endArrow=oval;endFill=0;entryX=0;entryY=0.75;entryDx=0;entryDy=0;" edge="1" parent="1" target="X861MBzPfUZEkW0-GhYv-532">
          <mxGeometry relative="1" as="geometry">
            <mxPoint x="3630" y="2030" as="targetPoint" />
            <mxPoint x="3550" y="2110" as="sourcePoint" />
          </mxGeometry>
        </mxCell>
        <mxCell id="X861MBzPfUZEkW0-GhYv-532" value="Alojamiento" style="text;html=1;strokeColor=none;fillColor=none;align=center;verticalAlign=middle;whiteSpace=wrap;rounded=0;" vertex="1" parent="1">
          <mxGeometry x="3630" y="2000" width="60" height="30" as="geometry" />
        </mxCell>
        <mxCell id="X861MBzPfUZEkW0-GhYv-533" style="edgeStyle=none;rounded=0;orthogonalLoop=1;jettySize=auto;html=1;endArrow=oval;endFill=0;entryX=1;entryY=0.75;entryDx=0;entryDy=0;" edge="1" parent="1" target="X861MBzPfUZEkW0-GhYv-534">
          <mxGeometry relative="1" as="geometry">
            <mxPoint x="3360" y="2110" as="targetPoint" />
            <mxPoint x="3450" y="2130" as="sourcePoint" />
          </mxGeometry>
        </mxCell>
        <mxCell id="X861MBzPfUZEkW0-GhYv-534" value="comentarioAdicional" style="text;html=1;strokeColor=none;fillColor=none;align=center;verticalAlign=middle;whiteSpace=wrap;rounded=0;" vertex="1" parent="1">
          <mxGeometry x="3305" y="2105" width="60" height="30" as="geometry" />
        </mxCell>
        <mxCell id="X861MBzPfUZEkW0-GhYv-535" style="edgeStyle=none;rounded=0;orthogonalLoop=1;jettySize=auto;html=1;endArrow=oval;endFill=0;" edge="1" parent="1" target="X861MBzPfUZEkW0-GhYv-536">
          <mxGeometry relative="1" as="geometry">
            <mxPoint x="3370" y="2140" as="targetPoint" />
            <mxPoint x="3450" y="2140" as="sourcePoint" />
          </mxGeometry>
        </mxCell>
        <mxCell id="X861MBzPfUZEkW0-GhYv-536" value="TransporteContrato" style="text;html=1;strokeColor=none;fillColor=none;align=center;verticalAlign=middle;whiteSpace=wrap;rounded=0;" vertex="1" parent="1">
          <mxGeometry x="3340" y="2145" width="60" height="30" as="geometry" />
        </mxCell>
        <mxCell id="X861MBzPfUZEkW0-GhYv-537" style="edgeStyle=none;rounded=0;orthogonalLoop=1;jettySize=auto;html=1;endArrow=oval;endFill=0;" edge="1" parent="1" target="X861MBzPfUZEkW0-GhYv-538">
          <mxGeometry relative="1" as="geometry">
            <mxPoint x="3640" y="2050" as="targetPoint" />
            <mxPoint x="3570" y="2110" as="sourcePoint" />
          </mxGeometry>
        </mxCell>
        <mxCell id="X861MBzPfUZEkW0-GhYv-538" value="AlumnosMax" style="text;html=1;strokeColor=none;fillColor=none;align=center;verticalAlign=middle;whiteSpace=wrap;rounded=0;" vertex="1" parent="1">
          <mxGeometry x="3610" y="2035" width="60" height="30" as="geometry" />
        </mxCell>
        <mxCell id="X861MBzPfUZEkW0-GhYv-539" style="edgeStyle=none;rounded=0;orthogonalLoop=1;jettySize=auto;html=1;endArrow=oval;endFill=0;exitX=0.5;exitY=1;exitDx=0;exitDy=0;" edge="1" parent="1" source="X861MBzPfUZEkW0-GhYv-296" target="X861MBzPfUZEkW0-GhYv-540">
          <mxGeometry relative="1" as="geometry">
            <mxPoint x="3550" y="2250" as="targetPoint" />
            <mxPoint x="3536.6800000000003" y="2182.34" as="sourcePoint" />
          </mxGeometry>
        </mxCell>
        <mxCell id="X861MBzPfUZEkW0-GhYv-540" value="AlumnosParticipantes" style="text;html=1;strokeColor=none;fillColor=none;align=center;verticalAlign=middle;whiteSpace=wrap;rounded=0;" vertex="1" parent="1">
          <mxGeometry x="3585" y="2265" width="60" height="30" as="geometry" />
        </mxCell>
        <mxCell id="X861MBzPfUZEkW0-GhYv-541" value="&lt;p style=&quot;margin: 0px; padding: 0px; user-select: text; -webkit-user-drag: none; -webkit-tap-highlight-color: transparent; text-align: left;&quot;&gt;&lt;span style=&quot;margin: 0px; padding: 0px; user-select: text; -webkit-user-drag: none; -webkit-tap-highlight-color: transparent; font-family: Calibri; font-size: 12pt;&quot; data-colorformula=&quot;0&quot; data-colorparams=&quot;#000000_null_null&quot;&gt;JEFES((idDepartamentos(FK),ID_Prof(FK))(PK))&lt;/span&gt;&lt;/p&gt;&lt;p style=&quot;margin: 0px; padding: 0px; user-select: text; -webkit-user-drag: none; -webkit-tap-highlight-color: transparent; text-align: left;&quot;&gt;&lt;br style=&quot;margin: 0px; padding: 0px; user-select: text; -webkit-user-drag: none; -webkit-tap-highlight-color: transparent; color: rgb(70, 114, 196); font-family: Calibri; font-size: 16px; text-wrap: wrap; background-color: rgb(255, 255, 255);&quot;&gt;&lt;/p&gt;" style="text;html=1;align=center;verticalAlign=middle;resizable=0;points=[];autosize=1;strokeColor=none;fillColor=none;" vertex="1" parent="1">
          <mxGeometry x="3190" y="720" width="310" height="30" as="geometry" />
        </mxCell>
        <mxCell id="X861MBzPfUZEkW0-GhYv-542" value="" style="endArrow=classic;html=1;rounded=0;exitX=0.226;exitY=-0.045;exitDx=0;exitDy=0;exitPerimeter=0;entryX=0.841;entryY=-0.033;entryDx=0;entryDy=0;entryPerimeter=0;" edge="1" parent="1" source="X861MBzPfUZEkW0-GhYv-459" target="X861MBzPfUZEkW0-GhYv-541">
          <mxGeometry width="50" height="50" relative="1" as="geometry">
            <mxPoint x="2962.5" y="520.0000000000002" as="sourcePoint" />
            <mxPoint x="3190" y="590" as="targetPoint" />
            <Array as="points">
              <mxPoint x="2595" y="650" />
              <mxPoint x="3447" y="650" />
            </Array>
          </mxGeometry>
        </mxCell>
        <mxCell id="X861MBzPfUZEkW0-GhYv-543" value="" style="endArrow=classic;html=1;rounded=0;" edge="1" parent="1">
          <mxGeometry width="50" height="50" relative="1" as="geometry">
            <mxPoint x="3330" y="820" as="sourcePoint" />
            <mxPoint x="3300" y="740" as="targetPoint" />
          </mxGeometry>
        </mxCell>
        <mxCell id="X861MBzPfUZEkW0-GhYv-544" value="1" style="text;html=1;align=center;verticalAlign=middle;resizable=0;points=[];autosize=1;strokeColor=none;fillColor=none;" vertex="1" parent="1">
          <mxGeometry x="3252.5" y="740" width="30" height="30" as="geometry" />
        </mxCell>
        <mxCell id="X861MBzPfUZEkW0-GhYv-545" value="1" style="text;html=1;align=center;verticalAlign=middle;resizable=0;points=[];autosize=1;strokeColor=none;fillColor=none;" vertex="1" parent="1">
          <mxGeometry x="3261" y="790" width="30" height="30" as="geometry" />
        </mxCell>
        <mxCell id="X861MBzPfUZEkW0-GhYv-546" value="1" style="text;html=1;align=center;verticalAlign=middle;resizable=0;points=[];autosize=1;strokeColor=none;fillColor=none;" vertex="1" parent="1">
          <mxGeometry x="2595" y="700" width="30" height="30" as="geometry" />
        </mxCell>
        <mxCell id="X861MBzPfUZEkW0-GhYv-547" value="1" style="text;html=1;align=center;verticalAlign=middle;resizable=0;points=[];autosize=1;strokeColor=none;fillColor=none;" vertex="1" parent="1">
          <mxGeometry x="3455" y="690" width="30" height="30" as="geometry" />
        </mxCell>
        <mxCell id="X861MBzPfUZEkW0-GhYv-548" value="1" style="text;html=1;align=center;verticalAlign=middle;resizable=0;points=[];autosize=1;strokeColor=none;fillColor=none;" vertex="1" parent="1">
          <mxGeometry x="2380" y="1150" width="30" height="30" as="geometry" />
        </mxCell>
        <mxCell id="X861MBzPfUZEkW0-GhYv-549" style="edgeStyle=orthogonalEdgeStyle;rounded=0;orthogonalLoop=1;jettySize=auto;html=1;endArrow=oval;endFill=0;exitX=0.75;exitY=0;exitDx=0;exitDy=0;entryX=0.281;entryY=0.992;entryDx=0;entryDy=0;entryPerimeter=0;" edge="1" parent="1" source="X861MBzPfUZEkW0-GhYv-442" target="X861MBzPfUZEkW0-GhYv-447">
          <mxGeometry relative="1" as="geometry">
            <mxPoint x="3419.44" y="1589.8399999999997" as="targetPoint" />
            <mxPoint x="3419.9199999999996" y="1572.4" as="sourcePoint" />
            <Array as="points">
              <mxPoint x="3450" y="1480" />
              <mxPoint x="3454" y="1480" />
            </Array>
          </mxGeometry>
        </mxCell>
        <mxCell id="X861MBzPfUZEkW0-GhYv-550" style="edgeStyle=none;rounded=0;orthogonalLoop=1;jettySize=auto;html=1;endArrow=oval;endFill=0;exitX=0.055;exitY=0.458;exitDx=0;exitDy=0;exitPerimeter=0;entryX=1.09;entryY=0.72;entryDx=0;entryDy=0;entryPerimeter=0;" edge="1" parent="1" source="X861MBzPfUZEkW0-GhYv-297" target="X861MBzPfUZEkW0-GhYv-405">
          <mxGeometry relative="1" as="geometry">
            <mxPoint x="2997.693076923077" y="1810" as="targetPoint" />
            <mxPoint x="2970.000769230769" y="1900" as="sourcePoint" />
          </mxGeometry>
        </mxCell>
        <mxCell id="X861MBzPfUZEkW0-GhYv-551" style="edgeStyle=orthogonalEdgeStyle;rounded=0;orthogonalLoop=1;jettySize=auto;html=1;endArrow=oval;endFill=1;exitX=0.829;exitY=0;exitDx=0;exitDy=0;exitPerimeter=0;entryX=0.36;entryY=1.012;entryDx=0;entryDy=0;entryPerimeter=0;" edge="1" parent="1" source="X861MBzPfUZEkW0-GhYv-303" target="X861MBzPfUZEkW0-GhYv-553">
          <mxGeometry relative="1" as="geometry">
            <mxPoint x="2660" y="2250" as="targetPoint" />
            <mxPoint x="2659.48" y="2305" as="sourcePoint" />
          </mxGeometry>
        </mxCell>
        <mxCell id="X861MBzPfUZEkW0-GhYv-553" value="ID_CURSO" style="text;html=1;align=center;verticalAlign=middle;resizable=0;points=[];autosize=1;strokeColor=none;fillColor=none;" vertex="1" parent="1">
          <mxGeometry x="2625" y="2245" width="90" height="30" as="geometry" />
        </mxCell>
        <mxCell id="X861MBzPfUZEkW0-GhYv-554" value="ID_CURSO" style="text;html=1;align=center;verticalAlign=middle;resizable=0;points=[];autosize=1;strokeColor=none;fillColor=none;" vertex="1" parent="1">
          <mxGeometry x="2250" y="1945" width="90" height="30" as="geometry" />
        </mxCell>
      </root>
    </mxGraphModel>
  </diagram>
</mxfile>
